<svg width="346" height="131" viewBox="0 0 346 131" fill="none" xmlns="http://www.w3.org/2000/svg">
<rect width="343" height="131" rx="20" fill="#FFEFEF"/>
<path d="M30.48 49.06C31.14 49.06 31.66 49.25 32.04 49.63C32.44 49.99 32.64 50.48 32.64 51.1V56.32C32.64 57.32 32.56 58.09 32.4 58.63C32.26 59.15 31.99 59.56 31.59 59.86C31.21 60.16 30.63 60.42 29.85 60.64C29.07 60.84 28.2 60.99 27.24 61.09C26.3 61.21 25.42 61.27 24.6 61.27C22.3 61.27 20.3 60.84 18.6 59.98C16.92 59.1 15.63 57.85 14.73 56.23C13.83 54.59 13.38 52.65 13.38 50.41C13.38 48.21 13.83 46.3 14.73 44.68C15.63 43.04 16.91 41.78 18.57 40.9C20.23 40.02 22.17 39.58 24.39 39.58C25.79 39.58 27.04 39.75 28.14 40.09C29.26 40.41 30.3 40.91 31.26 41.59C31.6 41.83 31.84 42.09 31.98 42.37C32.14 42.65 32.22 43.01 32.22 43.45C32.22 44.07 32.05 44.6 31.71 45.04C31.37 45.46 30.96 45.67 30.48 45.67C30.16 45.67 29.88 45.63 29.64 45.55C29.42 45.45 29.13 45.29 28.77 45.07C28.03 44.67 27.33 44.38 26.67 44.2C26.03 44.02 25.33 43.93 24.57 43.93C22.67 43.93 21.25 44.46 20.31 45.52C19.39 46.58 18.93 48.21 18.93 50.41C18.93 52.67 19.41 54.35 20.37 55.45C21.35 56.53 22.84 57.07 24.84 57.07C25.8 57.07 26.75 56.97 27.69 56.77V52.84H25.53C24.87 52.84 24.36 52.68 24 52.36C23.64 52.02 23.46 51.55 23.46 50.95C23.46 50.35 23.64 49.89 24 49.57C24.36 49.23 24.87 49.06 25.53 49.06H30.48ZM47.8842 56.26C48.3442 56.26 48.7142 56.44 48.9942 56.8C49.2942 57.16 49.4442 57.63 49.4442 58.21C49.4442 59.01 49.0542 59.62 48.2742 60.04C47.5942 60.38 46.7842 60.67 45.8442 60.91C44.9242 61.13 44.0742 61.24 43.2942 61.24C41.6542 61.24 40.2242 60.93 39.0042 60.31C37.7842 59.69 36.8442 58.8 36.1842 57.64C35.5242 56.48 35.1942 55.12 35.1942 53.56C35.1942 52.08 35.5042 50.76 36.1242 49.6C36.7642 48.42 37.6442 47.51 38.7642 46.87C39.9042 46.21 41.1842 45.88 42.6042 45.88C43.9842 45.88 45.1942 46.18 46.2342 46.78C47.2742 47.38 48.0742 48.23 48.6342 49.33C49.2142 50.43 49.5042 51.72 49.5042 53.2C49.5042 53.66 49.3942 54.02 49.1742 54.28C48.9742 54.52 48.6742 54.64 48.2742 54.64H40.3542C40.4942 55.6 40.8042 56.29 41.2842 56.71C41.7642 57.13 42.4742 57.34 43.4142 57.34C43.9142 57.34 44.3742 57.29 44.7942 57.19C45.2142 57.07 45.6842 56.91 46.2042 56.71C46.5042 56.59 46.7942 56.49 47.0742 56.41C47.3742 56.31 47.6442 56.26 47.8842 56.26ZM42.7542 49.48C42.0542 49.48 41.4942 49.71 41.0742 50.17C40.6542 50.61 40.4042 51.26 40.3242 52.12H45.0342C44.9142 50.36 44.1542 49.48 42.7542 49.48ZM60.3173 57.37C61.6573 57.45 62.3273 58.05 62.3273 59.17C62.3273 59.87 62.0573 60.39 61.5173 60.73C60.9773 61.07 60.2073 61.21 59.2073 61.15L58.3673 61.09C56.5673 60.95 55.1973 60.41 54.2573 59.47C53.3373 58.51 52.8773 57.18 52.8773 55.48V50.17H52.0073C50.4073 50.17 49.6073 49.51 49.6073 48.19C49.6073 46.89 50.4073 46.24 52.0073 46.24H52.8773V44.29C52.8773 43.53 53.1173 42.93 53.5973 42.49C54.0773 42.03 54.7273 41.8 55.5473 41.8C56.3673 41.8 57.0173 42.03 57.4973 42.49C57.9773 42.93 58.2173 43.53 58.2173 44.29V46.24H59.8673C61.4673 46.24 62.2673 46.89 62.2673 48.19C62.2673 49.51 61.4673 50.17 59.8673 50.17H58.2173V55.93C58.2173 56.31 58.3273 56.63 58.5473 56.89C58.7873 57.15 59.0873 57.29 59.4473 57.31L60.3173 57.37ZM82.1095 45.88C83.3695 45.88 84.4895 46.21 85.4695 46.87C86.4695 47.51 87.2395 48.42 87.7795 49.6C88.3395 50.78 88.6195 52.13 88.6195 53.65C88.6195 55.17 88.3395 56.51 87.7795 57.67C87.2395 58.81 86.4795 59.69 85.4995 60.31C84.5195 60.93 83.3895 61.24 82.1095 61.24C81.1695 61.24 80.2995 61.05 79.4995 60.67C78.7195 60.29 78.1095 59.78 77.6695 59.14V64.24C77.6695 64.94 77.4295 65.5 76.9495 65.92C76.4695 66.34 75.8395 66.55 75.0595 66.55C74.2395 66.55 73.5795 66.32 73.0795 65.86C72.5795 65.42 72.3295 64.85 72.3295 64.15V48.4C72.3295 47.66 72.5595 47.07 73.0195 46.63C73.4995 46.17 74.1395 45.94 74.9395 45.94C75.6995 45.94 76.3095 46.14 76.7695 46.54C77.2495 46.94 77.5195 47.47 77.5795 48.13C77.9995 47.43 78.6095 46.88 79.4095 46.48C80.2295 46.08 81.1295 45.88 82.1095 45.88ZM80.4895 57.25C81.4095 57.25 82.1095 56.94 82.5895 56.32C83.0895 55.7 83.3395 54.81 83.3395 53.65C83.3395 52.43 83.0895 51.5 82.5895 50.86C82.0895 50.2 81.3795 49.87 80.4595 49.87C79.5395 49.87 78.8295 50.19 78.3295 50.83C77.8295 51.47 77.5795 52.39 77.5795 53.59C77.5795 54.77 77.8295 55.68 78.3295 56.32C78.8295 56.94 79.5495 57.25 80.4895 57.25ZM100.44 45.94C101.12 45.88 101.66 46.04 102.06 46.42C102.46 46.78 102.66 47.32 102.66 48.04C102.66 48.84 102.47 49.42 102.09 49.78C101.73 50.14 101.07 50.37 100.11 50.47L99.2095 50.56C98.2095 50.68 97.4895 51 97.0495 51.52C96.6295 52.02 96.4195 52.71 96.4195 53.59V58.72C96.4195 59.54 96.1595 60.16 95.6395 60.58C95.1395 60.98 94.5095 61.18 93.7495 61.18C92.9895 61.18 92.3495 60.98 91.8295 60.58C91.3295 60.16 91.0795 59.54 91.0795 58.72V48.34C91.0795 47.58 91.3295 46.99 91.8295 46.57C92.3495 46.15 92.9695 45.94 93.6895 45.94C94.4295 45.94 95.0195 46.14 95.4595 46.54C95.9195 46.94 96.1495 47.5 96.1495 48.22V48.79C96.4695 47.91 96.9895 47.23 97.7095 46.75C98.4495 46.27 99.2195 46.01 100.02 45.97L100.44 45.94ZM115.355 56.26C115.815 56.26 116.185 56.44 116.465 56.8C116.765 57.16 116.915 57.63 116.915 58.21C116.915 59.01 116.525 59.62 115.745 60.04C115.065 60.38 114.255 60.67 113.315 60.91C112.395 61.13 111.545 61.24 110.765 61.24C109.125 61.24 107.695 60.93 106.475 60.31C105.255 59.69 104.315 58.8 103.655 57.64C102.995 56.48 102.665 55.12 102.665 53.56C102.665 52.08 102.975 50.76 103.595 49.6C104.235 48.42 105.115 47.51 106.235 46.87C107.375 46.21 108.655 45.88 110.075 45.88C111.455 45.88 112.665 46.18 113.705 46.78C114.745 47.38 115.545 48.23 116.105 49.33C116.685 50.43 116.975 51.72 116.975 53.2C116.975 53.66 116.865 54.02 116.645 54.28C116.445 54.52 116.145 54.64 115.745 54.64H107.825C107.965 55.6 108.275 56.29 108.755 56.71C109.235 57.13 109.945 57.34 110.885 57.34C111.385 57.34 111.845 57.29 112.265 57.19C112.685 57.07 113.155 56.91 113.675 56.71C113.975 56.59 114.265 56.49 114.545 56.41C114.845 56.31 115.115 56.26 115.355 56.26ZM110.225 49.48C109.525 49.48 108.965 49.71 108.545 50.17C108.125 50.61 107.875 51.26 107.795 52.12H112.505C112.385 50.36 111.625 49.48 110.225 49.48ZM132.52 45.94C133.32 45.94 133.96 46.17 134.44 46.63C134.92 47.07 135.16 47.66 135.16 48.4V59.2C135.16 61.64 134.42 63.49 132.94 64.75C131.48 66.01 129.33 66.64 126.49 66.64C125.39 66.64 124.35 66.54 123.37 66.34C122.39 66.14 121.56 65.85 120.88 65.47C120.52 65.27 120.23 65.01 120.01 64.69C119.81 64.37 119.71 64.01 119.71 63.61C119.71 63.03 119.85 62.56 120.13 62.2C120.43 61.84 120.81 61.66 121.27 61.66C121.63 61.66 122.28 61.81 123.22 62.11C123.84 62.31 124.39 62.46 124.87 62.56C125.35 62.68 125.84 62.74 126.34 62.74C127.56 62.74 128.45 62.48 129.01 61.96C129.59 61.46 129.88 60.66 129.88 59.56V58.42C129.44 59.08 128.81 59.61 127.99 60.01C127.17 60.39 126.28 60.58 125.32 60.58C124.04 60.58 122.9 60.28 121.9 59.68C120.9 59.08 120.12 58.23 119.56 57.13C119 56.01 118.72 54.72 118.72 53.26C118.72 51.8 119 50.51 119.56 49.39C120.12 48.27 120.9 47.41 121.9 46.81C122.9 46.19 124.04 45.88 125.32 45.88C126.3 45.88 127.2 46.08 128.02 46.48C128.84 46.88 129.47 47.43 129.91 48.13C129.95 47.45 130.2 46.92 130.66 46.54C131.14 46.14 131.76 45.94 132.52 45.94ZM126.94 56.59C127.88 56.59 128.61 56.3 129.13 55.72C129.65 55.14 129.91 54.32 129.91 53.26C129.91 52.2 129.65 51.37 129.13 50.77C128.61 50.17 127.88 49.87 126.94 49.87C126.02 49.87 125.3 50.17 124.78 50.77C124.26 51.35 124 52.18 124 53.26C124 54.3 124.26 55.12 124.78 55.72C125.32 56.3 126.04 56.59 126.94 56.59ZM148.207 45.88C149.967 45.88 151.277 46.41 152.137 47.47C152.997 48.51 153.427 50.1 153.427 52.24V58.72C153.427 59.48 153.187 60.08 152.707 60.52C152.227 60.96 151.577 61.18 150.757 61.18C149.937 61.18 149.287 60.96 148.807 60.52C148.327 60.08 148.087 59.48 148.087 58.72V52.48C148.087 51.6 147.927 50.96 147.607 50.56C147.307 50.16 146.847 49.96 146.227 49.96C145.427 49.96 144.787 50.22 144.307 50.74C143.847 51.24 143.617 51.92 143.617 52.78V58.72C143.617 59.48 143.377 60.08 142.897 60.52C142.417 60.96 141.767 61.18 140.947 61.18C140.127 61.18 139.477 60.96 138.997 60.52C138.517 60.08 138.277 59.48 138.277 58.72V48.34C138.277 47.64 138.527 47.07 139.027 46.63C139.527 46.17 140.177 45.94 140.977 45.94C141.737 45.94 142.337 46.15 142.777 46.57C143.237 46.99 143.467 47.54 143.467 48.22C143.987 47.46 144.657 46.88 145.477 46.48C146.297 46.08 147.207 45.88 148.207 45.88ZM163.311 45.88C165.591 45.88 167.271 46.43 168.351 47.53C169.451 48.61 170.001 50.26 170.001 52.48V58.75C170.001 59.51 169.771 60.11 169.311 60.55C168.871 60.97 168.251 61.18 167.451 61.18C166.751 61.18 166.171 60.98 165.711 60.58C165.271 60.18 165.031 59.64 164.991 58.96C164.711 59.68 164.241 60.24 163.581 60.64C162.921 61.04 162.131 61.24 161.211 61.24C160.191 61.24 159.271 61.04 158.451 60.64C157.631 60.22 156.981 59.65 156.501 58.93C156.041 58.19 155.811 57.36 155.811 56.44C155.811 55.38 156.081 54.54 156.621 53.92C157.181 53.28 158.061 52.82 159.261 52.54C160.461 52.26 162.081 52.12 164.121 52.12H164.931V51.76C164.931 51.06 164.771 50.56 164.451 50.26C164.131 49.94 163.591 49.78 162.831 49.78C162.011 49.78 160.811 50.06 159.231 50.62C158.771 50.78 158.381 50.86 158.061 50.86C157.561 50.86 157.161 50.68 156.861 50.32C156.561 49.96 156.411 49.49 156.411 48.91C156.411 48.47 156.501 48.11 156.681 47.83C156.861 47.55 157.151 47.3 157.551 47.08C158.251 46.72 159.131 46.43 160.191 46.21C161.251 45.99 162.291 45.88 163.311 45.88ZM162.471 57.67C163.191 57.67 163.781 57.42 164.241 56.92C164.701 56.4 164.931 55.74 164.931 54.94V54.58H164.451C163.171 54.58 162.261 54.7 161.721 54.94C161.181 55.16 160.911 55.54 160.911 56.08C160.911 56.54 161.051 56.92 161.331 57.22C161.631 57.52 162.011 57.67 162.471 57.67ZM182.924 45.88C184.684 45.88 185.994 46.41 186.854 47.47C187.714 48.51 188.144 50.1 188.144 52.24V58.72C188.144 59.48 187.904 60.08 187.424 60.52C186.944 60.96 186.294 61.18 185.474 61.18C184.654 61.18 184.004 60.96 183.524 60.52C183.044 60.08 182.804 59.48 182.804 58.72V52.48C182.804 51.6 182.644 50.96 182.324 50.56C182.024 50.16 181.564 49.96 180.944 49.96C180.144 49.96 179.504 50.22 179.024 50.74C178.564 51.24 178.334 51.92 178.334 52.78V58.72C178.334 59.48 178.094 60.08 177.614 60.52C177.134 60.96 176.484 61.18 175.664 61.18C174.844 61.18 174.194 60.96 173.714 60.52C173.234 60.08 172.994 59.48 172.994 58.72V48.34C172.994 47.64 173.244 47.07 173.744 46.63C174.244 46.17 174.894 45.94 175.694 45.94C176.454 45.94 177.054 46.15 177.494 46.57C177.954 46.99 178.184 47.54 178.184 48.22C178.704 47.46 179.374 46.88 180.194 46.48C181.014 46.08 181.924 45.88 182.924 45.88ZM199.888 57.37C201.228 57.45 201.898 58.05 201.898 59.17C201.898 59.87 201.628 60.39 201.088 60.73C200.548 61.07 199.778 61.21 198.778 61.15L197.938 61.09C196.138 60.95 194.768 60.41 193.828 59.47C192.908 58.51 192.448 57.18 192.448 55.48V50.17H191.578C189.978 50.17 189.178 49.51 189.178 48.19C189.178 46.89 189.978 46.24 191.578 46.24H192.448V44.29C192.448 43.53 192.688 42.93 193.168 42.49C193.648 42.03 194.298 41.8 195.118 41.8C195.938 41.8 196.588 42.03 197.068 42.49C197.548 42.93 197.788 43.53 197.788 44.29V46.24H199.438C201.038 46.24 201.838 46.89 201.838 48.19C201.838 49.51 201.038 50.17 199.438 50.17H197.788V55.93C197.788 56.31 197.898 56.63 198.118 56.89C198.358 57.15 198.658 57.29 199.018 57.31L199.888 57.37Z" fill="black"/>
<g clip-path="url(#clip0_1_33)">
<path d="M311 49C302.716 49 296 55.2685 296 63C296 70.7315 302.716 77 311 77C319.284 77 326 70.7315 326 63C326 55.2685 319.284 49 311 49ZM307.914 72.3695L306.588 71.1322L315.299 63L306.586 54.8695L307.912 53.6323L317.951 63L307.914 72.3695Z" fill="#53538A"/>
</g>
<path d="M20.32 89.1C20.08 89.1 19.88 89.0333 19.72 88.9C19.5733 88.7533 19.5 88.5533 19.5 88.3V75.6C19.5 75.3467 19.5733 75.1533 19.72 75.02C19.88 74.8733 20.08 74.8 20.32 74.8C20.5467 74.8 20.7333 74.8733 20.88 75.02C21.04 75.1533 21.12 75.3467 21.12 75.6V88.3C21.12 88.5533 21.04 88.7533 20.88 88.9C20.7333 89.0333 20.5467 89.1 20.32 89.1ZM31.6884 86.74C31.8351 86.74 31.9618 86.8 32.0684 86.92C32.1751 87.04 32.2284 87.1933 32.2284 87.38C32.2284 87.7133 31.9951 88.02 31.5284 88.3C31.0484 88.58 30.5418 88.7933 30.0084 88.94C29.4751 89.0733 28.9551 89.14 28.4484 89.14C26.9418 89.14 25.7484 88.6933 24.8684 87.8C24.0018 86.9067 23.5684 85.6733 23.5684 84.1C23.5684 83.1 23.7618 82.22 24.1484 81.46C24.5351 80.6867 25.0751 80.0867 25.7684 79.66C26.4751 79.2333 27.2751 79.02 28.1684 79.02C29.4351 79.02 30.4418 79.4333 31.1884 80.26C31.9351 81.0867 32.3084 82.2067 32.3084 83.62C32.3084 83.8867 32.2551 84.08 32.1484 84.2C32.0418 84.32 31.8684 84.38 31.6284 84.38H25.1884C25.3084 86.6733 26.3951 87.82 28.4484 87.82C28.9684 87.82 29.4151 87.7533 29.7884 87.62C30.1618 87.4733 30.5618 87.28 30.9884 87.04C31.3351 86.84 31.5684 86.74 31.6884 86.74ZM28.1884 80.28C27.3351 80.28 26.6484 80.5467 26.1284 81.08C25.6218 81.6133 25.3218 82.3667 25.2284 83.34H30.8884C30.8618 82.3533 30.6151 81.6 30.1484 81.08C29.6818 80.5467 29.0284 80.28 28.1884 80.28ZM38.6753 79.02C41.1153 79.02 42.3353 80.3 42.3353 82.86V88.3C42.3353 88.54 42.262 88.7333 42.1153 88.88C41.982 89.0267 41.7953 89.1 41.5553 89.1C41.3153 89.1 41.122 89.0267 40.9753 88.88C40.8286 88.7333 40.7553 88.54 40.7553 88.3V87.34C40.502 87.9133 40.1153 88.36 39.5953 88.68C39.0753 88.9867 38.4753 89.14 37.7953 89.14C37.1686 89.14 36.5886 89.0133 36.0553 88.76C35.5353 88.5067 35.122 88.1533 34.8153 87.7C34.5086 87.2467 34.3553 86.7467 34.3553 86.2C34.3553 85.4667 34.542 84.9 34.9153 84.5C35.2886 84.0867 35.902 83.7933 36.7553 83.62C37.6086 83.4333 38.7953 83.34 40.3153 83.34H40.7553V82.68C40.7553 81.88 40.5886 81.2933 40.2553 80.92C39.9353 80.5467 39.4086 80.36 38.6753 80.36C37.7686 80.36 36.8486 80.6067 35.9153 81.1C35.5553 81.3267 35.302 81.44 35.1553 81.44C34.9953 81.44 34.862 81.38 34.7553 81.26C34.6486 81.14 34.5953 80.9867 34.5953 80.8C34.5953 80.6133 34.6486 80.4533 34.7553 80.32C34.8753 80.1733 35.062 80.0267 35.3153 79.88C35.782 79.6133 36.3086 79.4067 36.8953 79.26C37.4953 79.1 38.0886 79.02 38.6753 79.02ZM38.0153 87.86C38.8153 87.86 39.4686 87.5933 39.9753 87.06C40.4953 86.5133 40.7553 85.8133 40.7553 84.96V84.38H40.3953C39.222 84.38 38.3286 84.4333 37.7153 84.54C37.102 84.6333 36.662 84.8 36.3953 85.04C36.142 85.2667 36.0153 85.6067 36.0153 86.06C36.0153 86.58 36.202 87.0133 36.5753 87.36C36.962 87.6933 37.442 87.86 38.0153 87.86ZM50.1208 79.06C50.6808 79.02 50.9608 79.2467 50.9608 79.74C50.9608 79.9533 50.9008 80.1267 50.7808 80.26C50.6608 80.38 50.4541 80.4533 50.1608 80.48L49.5608 80.54C48.6674 80.62 48.0008 80.94 47.5608 81.5C47.1341 82.0467 46.9208 82.6933 46.9208 83.44V88.3C46.9208 88.5667 46.8474 88.7667 46.7008 88.9C46.5541 89.0333 46.3608 89.1 46.1208 89.1C45.8808 89.1 45.6808 89.0333 45.5208 88.9C45.3741 88.7533 45.3008 88.5533 45.3008 88.3V79.86C45.3008 79.6067 45.3808 79.4133 45.5408 79.28C45.7008 79.1333 45.8941 79.06 46.1208 79.06C46.3341 79.06 46.5141 79.1333 46.6608 79.28C46.8074 79.4133 46.8808 79.6 46.8808 79.84V80.96C47.1608 80.3733 47.5541 79.9267 48.0608 79.62C48.5808 79.3133 49.1741 79.1333 49.8408 79.08L50.1208 79.06ZM57.2516 79.02C59.5849 79.02 60.7516 80.3067 60.7516 82.88V88.3C60.7516 88.5533 60.6782 88.7533 60.5316 88.9C60.3982 89.0333 60.2049 89.1 59.9516 89.1C59.6982 89.1 59.4982 89.0333 59.3516 88.9C59.2049 88.7533 59.1316 88.5533 59.1316 88.3V82.98C59.1316 82.0733 58.9516 81.4133 58.5916 81C58.2449 80.5867 57.6849 80.38 56.9116 80.38C56.0182 80.38 55.3049 80.6533 54.7716 81.2C54.2382 81.7467 53.9716 82.4867 53.9716 83.42V88.3C53.9716 88.5533 53.8982 88.7533 53.7516 88.9C53.6182 89.0333 53.4249 89.1 53.1716 89.1C52.9182 89.1 52.7182 89.0333 52.5716 88.9C52.4249 88.7533 52.3516 88.5533 52.3516 88.3V79.86C52.3516 79.62 52.4249 79.4267 52.5716 79.28C52.7182 79.1333 52.9182 79.06 53.1716 79.06C53.4116 79.06 53.5982 79.1333 53.7316 79.28C53.8782 79.4267 53.9516 79.6133 53.9516 79.84V80.86C54.2716 80.26 54.7182 79.8067 55.2916 79.5C55.8649 79.18 56.5182 79.02 57.2516 79.02ZM72.855 79.02C75.295 79.02 76.515 80.3 76.515 82.86V88.3C76.515 88.54 76.4417 88.7333 76.295 88.88C76.1617 89.0267 75.975 89.1 75.735 89.1C75.495 89.1 75.3017 89.0267 75.155 88.88C75.0083 88.7333 74.935 88.54 74.935 88.3V87.34C74.6817 87.9133 74.295 88.36 73.775 88.68C73.255 88.9867 72.655 89.14 71.975 89.14C71.3483 89.14 70.7683 89.0133 70.235 88.76C69.715 88.5067 69.3017 88.1533 68.995 87.7C68.6883 87.2467 68.535 86.7467 68.535 86.2C68.535 85.4667 68.7217 84.9 69.095 84.5C69.4683 84.0867 70.0817 83.7933 70.935 83.62C71.7883 83.4333 72.975 83.34 74.495 83.34H74.935V82.68C74.935 81.88 74.7683 81.2933 74.435 80.92C74.115 80.5467 73.5883 80.36 72.855 80.36C71.9483 80.36 71.0283 80.6067 70.095 81.1C69.735 81.3267 69.4817 81.44 69.335 81.44C69.175 81.44 69.0417 81.38 68.935 81.26C68.8283 81.14 68.775 80.9867 68.775 80.8C68.775 80.6133 68.8283 80.4533 68.935 80.32C69.055 80.1733 69.2417 80.0267 69.495 79.88C69.9617 79.6133 70.4883 79.4067 71.075 79.26C71.675 79.1 72.2683 79.02 72.855 79.02ZM72.195 87.86C72.995 87.86 73.6483 87.5933 74.155 87.06C74.675 86.5133 74.935 85.8133 74.935 84.96V84.38H74.575C73.4017 84.38 72.5083 84.4333 71.895 84.54C71.2817 84.6333 70.8417 84.8 70.575 85.04C70.3217 85.2667 70.195 85.6067 70.195 86.06C70.195 86.58 70.3817 87.0133 70.755 87.36C71.1417 87.6933 71.6217 87.86 72.195 87.86ZM84.3805 79.02C85.2338 79.02 85.9871 79.2267 86.6405 79.64C87.2938 80.0533 87.8005 80.64 88.1605 81.4C88.5205 82.16 88.7005 83.04 88.7005 84.04C88.7005 85.0533 88.5205 85.9467 88.1605 86.72C87.8005 87.48 87.2938 88.0733 86.6405 88.5C85.9871 88.9267 85.2338 89.14 84.3805 89.14C83.6205 89.14 82.9538 88.9733 82.3805 88.64C81.8205 88.3067 81.3938 87.8333 81.1005 87.22V88.3C81.1005 88.54 81.0271 88.7333 80.8805 88.88C80.7471 89.0267 80.5538 89.1 80.3005 89.1C80.0471 89.1 79.8471 89.0267 79.7005 88.88C79.5538 88.7333 79.4805 88.54 79.4805 88.3V75.58C79.4805 75.3533 79.5538 75.1667 79.7005 75.02C79.8471 74.8733 80.0471 74.8 80.3005 74.8C80.5538 74.8 80.7471 74.8733 80.8805 75.02C81.0271 75.1533 81.1005 75.34 81.1005 75.58V80.94C81.3938 80.3267 81.8205 79.8533 82.3805 79.52C82.9538 79.1867 83.6205 79.02 84.3805 79.02ZM84.0605 87.8C85.0071 87.8 85.7405 87.4733 86.2605 86.82C86.7805 86.1533 87.0405 85.2267 87.0405 84.04C87.0405 82.88 86.7805 81.98 86.2605 81.34C85.7405 80.7 85.0071 80.38 84.0605 80.38C83.1138 80.38 82.3805 80.7 81.8605 81.34C81.3538 81.98 81.1005 82.8933 81.1005 84.08C81.1005 85.2667 81.3538 86.1867 81.8605 86.84C82.3805 87.48 83.1138 87.8 84.0605 87.8ZM95.1611 89.14C94.2411 89.14 93.4278 88.9333 92.7211 88.52C92.0278 88.1067 91.4878 87.52 91.1011 86.76C90.7278 85.9867 90.5411 85.0933 90.5411 84.08C90.5411 83.0667 90.7278 82.18 91.1011 81.42C91.4878 80.6467 92.0278 80.0533 92.7211 79.64C93.4278 79.2267 94.2411 79.02 95.1611 79.02C96.0811 79.02 96.8944 79.2267 97.6011 79.64C98.3078 80.0533 98.8478 80.6467 99.2211 81.42C99.6078 82.18 99.8011 83.0667 99.8011 84.08C99.8011 85.0933 99.6078 85.9867 99.2211 86.76C98.8478 87.52 98.3078 88.1067 97.6011 88.52C96.8944 88.9333 96.0811 89.14 95.1611 89.14ZM95.1611 87.8C96.1211 87.8 96.8544 87.4867 97.3611 86.86C97.8811 86.22 98.1411 85.2933 98.1411 84.08C98.1411 82.8933 97.8811 81.98 97.3611 81.34C96.8411 80.6867 96.1078 80.36 95.1611 80.36C94.2144 80.36 93.4811 80.6867 92.9611 81.34C92.4411 81.98 92.1811 82.8933 92.1811 84.08C92.1811 85.28 92.4344 86.2 92.9411 86.84C93.4611 87.48 94.2011 87.8 95.1611 87.8ZM109.615 79.06C109.868 79.06 110.062 79.1333 110.195 79.28C110.342 79.4267 110.415 79.62 110.415 79.86V88.32C110.415 88.5467 110.342 88.7333 110.195 88.88C110.062 89.0267 109.868 89.1 109.615 89.1C109.375 89.1 109.182 89.0333 109.035 88.9C108.902 88.7533 108.835 88.5667 108.835 88.34V87.34C108.528 87.9267 108.095 88.3733 107.535 88.68C106.988 88.9867 106.368 89.14 105.675 89.14C104.515 89.14 103.642 88.82 103.055 88.18C102.468 87.5267 102.175 86.5667 102.175 85.3V79.86C102.175 79.62 102.248 79.4267 102.395 79.28C102.542 79.1333 102.742 79.06 102.995 79.06C103.248 79.06 103.442 79.1333 103.575 79.28C103.722 79.4267 103.795 79.62 103.795 79.86V85.26C103.795 86.1267 103.968 86.7667 104.315 87.18C104.662 87.58 105.208 87.78 105.955 87.78C106.808 87.78 107.495 87.5067 108.015 86.96C108.535 86.4 108.795 85.6667 108.795 84.76V79.86C108.795 79.62 108.868 79.4267 109.015 79.28C109.162 79.1333 109.362 79.06 109.615 79.06ZM117.926 87.82C118.392 87.86 118.626 88.0733 118.626 88.46C118.626 88.6867 118.539 88.86 118.366 88.98C118.206 89.0867 117.959 89.1267 117.626 89.1L117.086 89.06C116.019 88.98 115.232 88.66 114.726 88.1C114.219 87.54 113.966 86.6933 113.966 85.56V80.54H112.626C112.399 80.54 112.219 80.4867 112.086 80.38C111.966 80.26 111.906 80.1067 111.906 79.92C111.906 79.72 111.966 79.56 112.086 79.44C112.219 79.32 112.399 79.26 112.626 79.26H113.966V77C113.966 76.7467 114.039 76.5533 114.186 76.42C114.332 76.2733 114.532 76.2 114.786 76.2C115.026 76.2 115.219 76.2733 115.366 76.42C115.512 76.5533 115.586 76.7467 115.586 77V79.26H117.806C118.019 79.26 118.186 79.32 118.306 79.44C118.439 79.56 118.506 79.72 118.506 79.92C118.506 80.1067 118.439 80.26 118.306 80.38C118.186 80.4867 118.019 80.54 117.806 80.54H115.586V85.64C115.586 86.3733 115.732 86.9067 116.026 87.24C116.332 87.56 116.786 87.74 117.386 87.78L117.926 87.82ZM130.199 79.06C130.759 79.02 131.039 79.2467 131.039 79.74C131.039 79.9533 130.979 80.1267 130.859 80.26C130.739 80.38 130.532 80.4533 130.239 80.48L129.639 80.54C128.746 80.62 128.079 80.94 127.639 81.5C127.212 82.0467 126.999 82.6933 126.999 83.44V88.3C126.999 88.5667 126.926 88.7667 126.779 88.9C126.632 89.0333 126.439 89.1 126.199 89.1C125.959 89.1 125.759 89.0333 125.599 88.9C125.452 88.7533 125.379 88.5533 125.379 88.3V79.86C125.379 79.6067 125.459 79.4133 125.619 79.28C125.779 79.1333 125.972 79.06 126.199 79.06C126.412 79.06 126.592 79.1333 126.739 79.28C126.886 79.4133 126.959 79.6 126.959 79.84V80.96C127.239 80.3733 127.632 79.9267 128.139 79.62C128.659 79.3133 129.252 79.1333 129.919 79.08L130.199 79.06ZM139.774 86.74C139.921 86.74 140.048 86.8 140.154 86.92C140.261 87.04 140.314 87.1933 140.314 87.38C140.314 87.7133 140.081 88.02 139.614 88.3C139.134 88.58 138.628 88.7933 138.094 88.94C137.561 89.0733 137.041 89.14 136.534 89.14C135.028 89.14 133.834 88.6933 132.954 87.8C132.088 86.9067 131.654 85.6733 131.654 84.1C131.654 83.1 131.848 82.22 132.234 81.46C132.621 80.6867 133.161 80.0867 133.854 79.66C134.561 79.2333 135.361 79.02 136.254 79.02C137.521 79.02 138.528 79.4333 139.274 80.26C140.021 81.0867 140.394 82.2067 140.394 83.62C140.394 83.8867 140.341 84.08 140.234 84.2C140.128 84.32 139.954 84.38 139.714 84.38H133.274C133.394 86.6733 134.481 87.82 136.534 87.82C137.054 87.82 137.501 87.7533 137.874 87.62C138.248 87.4733 138.648 87.28 139.074 87.04C139.421 86.84 139.654 86.74 139.774 86.74ZM136.274 80.28C135.421 80.28 134.734 80.5467 134.214 81.08C133.708 81.6133 133.408 82.3667 133.314 83.34H138.974C138.948 82.3533 138.701 81.6 138.234 81.08C137.768 80.5467 137.114 80.28 136.274 80.28ZM147.681 79.02C148.535 79.02 149.288 79.2333 149.941 79.66C150.595 80.0867 151.101 80.6867 151.461 81.46C151.821 82.22 152.001 83.1067 152.001 84.12C152.001 85.1333 151.821 86.02 151.461 86.78C151.101 87.5267 150.595 88.1067 149.941 88.52C149.301 88.9333 148.548 89.14 147.681 89.14C146.921 89.14 146.255 88.9733 145.681 88.64C145.121 88.3067 144.695 87.8333 144.401 87.22V91.92C144.401 92.16 144.328 92.3467 144.181 92.48C144.048 92.6267 143.855 92.7 143.601 92.7C143.348 92.7 143.148 92.6267 143.001 92.48C142.855 92.3333 142.781 92.1467 142.781 91.92V79.86C142.781 79.62 142.855 79.4267 143.001 79.28C143.148 79.1333 143.348 79.06 143.601 79.06C143.855 79.06 144.048 79.1333 144.181 79.28C144.328 79.4267 144.401 79.62 144.401 79.86V80.94C144.695 80.3267 145.121 79.8533 145.681 79.52C146.255 79.1867 146.921 79.02 147.681 79.02ZM147.361 87.8C148.308 87.8 149.041 87.48 149.561 86.84C150.081 86.2 150.341 85.2933 150.341 84.12C150.341 82.9467 150.081 82.0333 149.561 81.38C149.041 80.7133 148.308 80.38 147.361 80.38C146.415 80.38 145.681 80.7 145.161 81.34C144.655 81.98 144.401 82.8933 144.401 84.08C144.401 85.2667 144.655 86.1867 145.161 86.84C145.681 87.48 146.415 87.8 147.361 87.8ZM159.242 79.06C159.802 79.02 160.082 79.2467 160.082 79.74C160.082 79.9533 160.022 80.1267 159.902 80.26C159.782 80.38 159.575 80.4533 159.282 80.48L158.682 80.54C157.789 80.62 157.122 80.94 156.682 81.5C156.255 82.0467 156.042 82.6933 156.042 83.44V88.3C156.042 88.5667 155.969 88.7667 155.822 88.9C155.675 89.0333 155.482 89.1 155.242 89.1C155.002 89.1 154.802 89.0333 154.642 88.9C154.495 88.7533 154.422 88.5533 154.422 88.3V79.86C154.422 79.6067 154.502 79.4133 154.662 79.28C154.822 79.1333 155.015 79.06 155.242 79.06C155.455 79.06 155.635 79.1333 155.782 79.28C155.929 79.4133 156.002 79.6 156.002 79.84V80.96C156.282 80.3733 156.675 79.9267 157.182 79.62C157.702 79.3133 158.295 79.1333 158.962 79.08L159.242 79.06ZM165.317 89.14C164.397 89.14 163.584 88.9333 162.877 88.52C162.184 88.1067 161.644 87.52 161.257 86.76C160.884 85.9867 160.697 85.0933 160.697 84.08C160.697 83.0667 160.884 82.18 161.257 81.42C161.644 80.6467 162.184 80.0533 162.877 79.64C163.584 79.2267 164.397 79.02 165.317 79.02C166.237 79.02 167.051 79.2267 167.757 79.64C168.464 80.0533 169.004 80.6467 169.377 81.42C169.764 82.18 169.957 83.0667 169.957 84.08C169.957 85.0933 169.764 85.9867 169.377 86.76C169.004 87.52 168.464 88.1067 167.757 88.52C167.051 88.9333 166.237 89.14 165.317 89.14ZM165.317 87.8C166.277 87.8 167.011 87.4867 167.517 86.86C168.037 86.22 168.297 85.2933 168.297 84.08C168.297 82.8933 168.037 81.98 167.517 81.34C166.997 80.6867 166.264 80.36 165.317 80.36C164.371 80.36 163.637 80.6867 163.117 81.34C162.597 81.98 162.337 82.8933 162.337 84.08C162.337 85.28 162.591 86.2 163.097 86.84C163.617 87.48 164.357 87.8 165.317 87.8ZM180.191 74.8C180.444 74.8 180.644 74.8733 180.791 75.02C180.938 75.1667 181.011 75.3533 181.011 75.58V88.3C181.011 88.54 180.938 88.7333 180.791 88.88C180.644 89.0267 180.444 89.1 180.191 89.1C179.938 89.1 179.738 89.0267 179.591 88.88C179.458 88.7333 179.391 88.54 179.391 88.3V87.22C179.098 87.8333 178.664 88.3067 178.091 88.64C177.531 88.9733 176.871 89.14 176.111 89.14C175.258 89.14 174.504 88.9267 173.851 88.5C173.198 88.0733 172.691 87.48 172.331 86.72C171.971 85.9467 171.791 85.0533 171.791 84.04C171.791 83.04 171.971 82.16 172.331 81.4C172.691 80.64 173.198 80.0533 173.851 79.64C174.504 79.2267 175.258 79.02 176.111 79.02C176.871 79.02 177.531 79.1867 178.091 79.52C178.664 79.8533 179.098 80.3267 179.391 80.94V75.58C179.391 75.34 179.458 75.1533 179.591 75.02C179.738 74.8733 179.938 74.8 180.191 74.8ZM176.431 87.8C177.378 87.8 178.104 87.48 178.611 86.84C179.131 86.1867 179.391 85.2667 179.391 84.08C179.391 82.8933 179.131 81.98 178.611 81.34C178.104 80.7 177.378 80.38 176.431 80.38C175.484 80.38 174.744 80.7 174.211 81.34C173.691 81.98 173.431 82.88 173.431 84.04C173.431 85.2267 173.691 86.1533 174.211 86.82C174.744 87.4733 175.484 87.8 176.431 87.8ZM191.412 79.06C191.665 79.06 191.858 79.1333 191.992 79.28C192.138 79.4267 192.212 79.62 192.212 79.86V88.32C192.212 88.5467 192.138 88.7333 191.992 88.88C191.858 89.0267 191.665 89.1 191.412 89.1C191.172 89.1 190.978 89.0333 190.832 88.9C190.698 88.7533 190.632 88.5667 190.632 88.34V87.34C190.325 87.9267 189.892 88.3733 189.332 88.68C188.785 88.9867 188.165 89.14 187.472 89.14C186.312 89.14 185.438 88.82 184.852 88.18C184.265 87.5267 183.972 86.5667 183.972 85.3V79.86C183.972 79.62 184.045 79.4267 184.192 79.28C184.338 79.1333 184.538 79.06 184.792 79.06C185.045 79.06 185.238 79.1333 185.372 79.28C185.518 79.4267 185.592 79.62 185.592 79.86V85.26C185.592 86.1267 185.765 86.7667 186.112 87.18C186.458 87.58 187.005 87.78 187.752 87.78C188.605 87.78 189.292 87.5067 189.812 86.96C190.332 86.4 190.592 85.6667 190.592 84.76V79.86C190.592 79.62 190.665 79.4267 190.812 79.28C190.958 79.1333 191.158 79.06 191.412 79.06ZM199.243 89.14C198.336 89.14 197.529 88.9333 196.823 88.52C196.129 88.1067 195.589 87.52 195.203 86.76C194.829 86 194.643 85.12 194.643 84.12C194.643 83.12 194.836 82.2333 195.223 81.46C195.623 80.6867 196.176 80.0867 196.883 79.66C197.589 79.2333 198.403 79.02 199.323 79.02C199.829 79.02 200.329 79.0933 200.823 79.24C201.329 79.3733 201.769 79.5733 202.143 79.84C202.383 80 202.549 80.16 202.643 80.32C202.749 80.4667 202.803 80.6333 202.803 80.82C202.803 81.0067 202.749 81.16 202.643 81.28C202.549 81.4 202.423 81.46 202.263 81.46C202.169 81.46 202.069 81.4333 201.963 81.38C201.856 81.3267 201.763 81.2733 201.683 81.22C201.616 81.1667 201.569 81.1333 201.543 81.12C201.196 80.8933 200.863 80.7133 200.543 80.58C200.236 80.4467 199.856 80.38 199.403 80.38C198.429 80.38 197.669 80.7133 197.123 81.38C196.589 82.0333 196.323 82.9467 196.323 84.12C196.323 85.2933 196.589 86.2 197.123 86.84C197.669 87.48 198.429 87.8 199.403 87.8C199.856 87.8 200.243 87.7333 200.563 87.6C200.896 87.4667 201.229 87.2867 201.563 87.06C201.709 86.9667 201.849 86.8867 201.983 86.82C202.116 86.7533 202.229 86.72 202.323 86.72C202.469 86.72 202.589 86.78 202.683 86.9C202.789 87.02 202.843 87.1733 202.843 87.36C202.843 87.5333 202.796 87.6933 202.703 87.84C202.609 87.9733 202.436 88.1267 202.183 88.3C201.809 88.5533 201.356 88.76 200.823 88.92C200.303 89.0667 199.776 89.14 199.243 89.14ZM209.313 87.82C209.779 87.86 210.013 88.0733 210.013 88.46C210.013 88.6867 209.926 88.86 209.753 88.98C209.593 89.0867 209.346 89.1267 209.013 89.1L208.473 89.06C207.406 88.98 206.619 88.66 206.113 88.1C205.606 87.54 205.353 86.6933 205.353 85.56V80.54H204.013C203.786 80.54 203.606 80.4867 203.473 80.38C203.353 80.26 203.292 80.1067 203.292 79.92C203.292 79.72 203.353 79.56 203.473 79.44C203.606 79.32 203.786 79.26 204.013 79.26H205.353V77C205.353 76.7467 205.426 76.5533 205.573 76.42C205.719 76.2733 205.919 76.2 206.173 76.2C206.413 76.2 206.606 76.2733 206.753 76.42C206.899 76.5533 206.973 76.7467 206.973 77V79.26H209.192C209.406 79.26 209.573 79.32 209.693 79.44C209.826 79.56 209.893 79.72 209.893 79.92C209.893 80.1067 209.826 80.26 209.693 80.38C209.573 80.4867 209.406 80.54 209.192 80.54H206.973V85.64C206.973 86.3733 207.119 86.9067 207.413 87.24C207.719 87.56 208.173 87.74 208.773 87.78L209.313 87.82ZM212.429 89.1C212.189 89.1 211.989 89.0333 211.829 88.9C211.683 88.7533 211.609 88.5533 211.609 88.3V79.86C211.609 79.6067 211.683 79.4133 211.829 79.28C211.989 79.1333 212.189 79.06 212.429 79.06C212.669 79.06 212.863 79.1333 213.009 79.28C213.156 79.4133 213.229 79.6067 213.229 79.86V88.3C213.229 88.5667 213.156 88.7667 213.009 88.9C212.863 89.0333 212.669 89.1 212.429 89.1ZM212.429 76.96C212.109 76.96 211.849 76.8667 211.649 76.68C211.449 76.4933 211.349 76.2467 211.349 75.94C211.349 75.6467 211.449 75.4067 211.649 75.22C211.849 75.0333 212.109 74.94 212.429 74.94C212.749 74.94 213.009 75.0333 213.209 75.22C213.409 75.4067 213.509 75.6467 213.509 75.94C213.509 76.2467 213.409 76.4933 213.209 76.68C213.009 76.8667 212.749 76.96 212.429 76.96ZM223.278 79.56C223.424 79.24 223.658 79.08 223.978 79.08C224.178 79.08 224.358 79.1467 224.518 79.28C224.678 79.4133 224.758 79.58 224.758 79.78C224.758 79.9 224.731 80.0067 224.678 80.1L220.778 88.5C220.698 88.6733 220.578 88.8133 220.418 88.92C220.258 89.0133 220.084 89.06 219.898 89.06C219.724 89.06 219.558 89.0133 219.398 88.92C219.238 88.8133 219.111 88.6733 219.018 88.5L215.138 80.1C215.084 80.0067 215.058 79.9067 215.058 79.8C215.058 79.6 215.144 79.4267 215.318 79.28C215.504 79.1333 215.704 79.06 215.918 79.06C216.051 79.06 216.178 79.1 216.298 79.18C216.431 79.26 216.531 79.3733 216.598 79.52L219.938 87.02L223.278 79.56ZM233.954 86.74C234.101 86.74 234.227 86.8 234.334 86.92C234.441 87.04 234.494 87.1933 234.494 87.38C234.494 87.7133 234.261 88.02 233.794 88.3C233.314 88.58 232.807 88.7933 232.274 88.94C231.741 89.0733 231.221 89.14 230.714 89.14C229.207 89.14 228.014 88.6933 227.134 87.8C226.267 86.9067 225.834 85.6733 225.834 84.1C225.834 83.1 226.027 82.22 226.414 81.46C226.801 80.6867 227.341 80.0867 228.034 79.66C228.741 79.2333 229.541 79.02 230.434 79.02C231.701 79.02 232.707 79.4333 233.454 80.26C234.201 81.0867 234.574 82.2067 234.574 83.62C234.574 83.8867 234.521 84.08 234.414 84.2C234.307 84.32 234.134 84.38 233.894 84.38H227.454C227.574 86.6733 228.661 87.82 230.714 87.82C231.234 87.82 231.681 87.7533 232.054 87.62C232.427 87.4733 232.827 87.28 233.254 87.04C233.601 86.84 233.834 86.74 233.954 86.74ZM230.454 80.28C229.601 80.28 228.914 80.5467 228.394 81.08C227.887 81.6133 227.587 82.3667 227.494 83.34H233.154C233.127 82.3533 232.881 81.6 232.414 81.08C231.947 80.5467 231.294 80.28 230.454 80.28ZM247.037 79.02C248.184 79.02 249.051 79.3467 249.637 80C250.224 80.64 250.517 81.6 250.517 82.88V88.3C250.517 88.5533 250.444 88.7533 250.297 88.9C250.151 89.0333 249.957 89.1 249.717 89.1C249.464 89.1 249.264 89.0333 249.117 88.9C248.971 88.7533 248.897 88.5533 248.897 88.3V82.92C248.897 82.0533 248.717 81.4133 248.357 81C248.011 80.5867 247.451 80.38 246.677 80.38C245.784 80.38 245.071 80.6533 244.537 81.2C244.004 81.7467 243.737 82.4867 243.737 83.42V88.3C243.737 88.5533 243.664 88.7533 243.517 88.9C243.384 89.0333 243.191 89.1 242.937 89.1C242.684 89.1 242.484 89.0333 242.337 88.9C242.191 88.7533 242.117 88.5533 242.117 88.3V75.58C242.117 75.3533 242.191 75.1667 242.337 75.02C242.497 74.8733 242.697 74.8 242.937 74.8C243.191 74.8 243.384 74.8733 243.517 75.02C243.664 75.1533 243.737 75.34 243.737 75.58V80.82C244.057 80.2333 244.504 79.7867 245.077 79.48C245.651 79.1733 246.304 79.02 247.037 79.02ZM261.024 86.74C261.171 86.74 261.298 86.8 261.404 86.92C261.511 87.04 261.564 87.1933 261.564 87.38C261.564 87.7133 261.331 88.02 260.864 88.3C260.384 88.58 259.878 88.7933 259.344 88.94C258.811 89.0733 258.291 89.14 257.784 89.14C256.278 89.14 255.084 88.6933 254.204 87.8C253.338 86.9067 252.904 85.6733 252.904 84.1C252.904 83.1 253.098 82.22 253.484 81.46C253.871 80.6867 254.411 80.0867 255.104 79.66C255.811 79.2333 256.611 79.02 257.504 79.02C258.771 79.02 259.778 79.4333 260.524 80.26C261.271 81.0867 261.644 82.2067 261.644 83.62C261.644 83.8867 261.591 84.08 261.484 84.2C261.378 84.32 261.204 84.38 260.964 84.38H254.524C254.644 86.6733 255.731 87.82 257.784 87.82C258.304 87.82 258.751 87.7533 259.124 87.62C259.498 87.4733 259.898 87.28 260.324 87.04C260.671 86.84 260.904 86.74 261.024 86.74ZM257.524 80.28C256.671 80.28 255.984 80.5467 255.464 81.08C254.958 81.6133 254.658 82.3667 254.564 83.34H260.224C260.198 82.3533 259.951 81.6 259.484 81.08C259.018 80.5467 258.364 80.28 257.524 80.28ZM268.011 79.02C270.451 79.02 271.671 80.3 271.671 82.86V88.3C271.671 88.54 271.598 88.7333 271.451 88.88C271.318 89.0267 271.131 89.1 270.891 89.1C270.651 89.1 270.458 89.0267 270.311 88.88C270.165 88.7333 270.091 88.54 270.091 88.3V87.34C269.838 87.9133 269.451 88.36 268.931 88.68C268.411 88.9867 267.811 89.14 267.131 89.14C266.505 89.14 265.925 89.0133 265.391 88.76C264.871 88.5067 264.458 88.1533 264.151 87.7C263.845 87.2467 263.691 86.7467 263.691 86.2C263.691 85.4667 263.878 84.9 264.251 84.5C264.625 84.0867 265.238 83.7933 266.091 83.62C266.945 83.4333 268.131 83.34 269.651 83.34H270.091V82.68C270.091 81.88 269.925 81.2933 269.591 80.92C269.271 80.5467 268.745 80.36 268.011 80.36C267.105 80.36 266.185 80.6067 265.251 81.1C264.891 81.3267 264.638 81.44 264.491 81.44C264.331 81.44 264.198 81.38 264.091 81.26C263.985 81.14 263.931 80.9867 263.931 80.8C263.931 80.6133 263.985 80.4533 264.091 80.32C264.211 80.1733 264.398 80.0267 264.651 79.88C265.118 79.6133 265.645 79.4067 266.231 79.26C266.831 79.1 267.425 79.02 268.011 79.02ZM267.351 87.86C268.151 87.86 268.805 87.5933 269.311 87.06C269.831 86.5133 270.091 85.8133 270.091 84.96V84.38H269.731C268.558 84.38 267.665 84.4333 267.051 84.54C266.438 84.6333 265.998 84.8 265.731 85.04C265.478 85.2667 265.351 85.6067 265.351 86.06C265.351 86.58 265.538 87.0133 265.911 87.36C266.298 87.6933 266.778 87.86 267.351 87.86ZM275.457 89.1C275.217 89.1 275.017 89.0333 274.857 88.9C274.71 88.7533 274.637 88.5533 274.637 88.3V75.6C274.637 75.3467 274.71 75.1533 274.857 75.02C275.017 74.8733 275.217 74.8 275.457 74.8C275.683 74.8 275.87 74.8733 276.017 75.02C276.177 75.1533 276.257 75.3467 276.257 75.6V88.3C276.257 88.5533 276.177 88.7533 276.017 88.9C275.87 89.0333 275.683 89.1 275.457 89.1ZM283.941 87.82C284.408 87.86 284.641 88.0733 284.641 88.46C284.641 88.6867 284.555 88.86 284.381 88.98C284.221 89.0867 283.975 89.1267 283.641 89.1L283.101 89.06C282.035 88.98 281.248 88.66 280.741 88.1C280.235 87.54 279.981 86.6933 279.981 85.56V80.54H278.641C278.415 80.54 278.235 80.4867 278.101 80.38C277.981 80.26 277.921 80.1067 277.921 79.92C277.921 79.72 277.981 79.56 278.101 79.44C278.235 79.32 278.415 79.26 278.641 79.26H279.981V77C279.981 76.7467 280.055 76.5533 280.201 76.42C280.348 76.2733 280.548 76.2 280.801 76.2C281.041 76.2 281.235 76.2733 281.381 76.42C281.528 76.5533 281.601 76.7467 281.601 77V79.26H283.821C284.035 79.26 284.201 79.32 284.321 79.44C284.455 79.56 284.521 79.72 284.521 79.92C284.521 80.1067 284.455 80.26 284.321 80.38C284.201 80.4867 284.035 80.54 283.821 80.54H281.601V85.64C281.601 86.3733 281.748 86.9067 282.041 87.24C282.348 87.56 282.801 87.74 283.401 87.78L283.941 87.82ZM291.158 79.02C292.305 79.02 293.172 79.3467 293.758 80C294.345 80.64 294.638 81.6 294.638 82.88V88.3C294.638 88.5533 294.565 88.7533 294.418 88.9C294.272 89.0333 294.078 89.1 293.838 89.1C293.585 89.1 293.385 89.0333 293.238 88.9C293.092 88.7533 293.018 88.5533 293.018 88.3V82.92C293.018 82.0533 292.838 81.4133 292.478 81C292.132 80.5867 291.572 80.38 290.798 80.38C289.905 80.38 289.192 80.6533 288.658 81.2C288.125 81.7467 287.858 82.4867 287.858 83.42V88.3C287.858 88.5533 287.785 88.7533 287.638 88.9C287.505 89.0333 287.312 89.1 287.058 89.1C286.805 89.1 286.605 89.0333 286.458 88.9C286.312 88.7533 286.238 88.5533 286.238 88.3V75.58C286.238 75.3533 286.312 75.1667 286.458 75.02C286.618 74.8733 286.818 74.8 287.058 74.8C287.312 74.8 287.505 74.8733 287.638 75.02C287.785 75.1533 287.858 75.34 287.858 75.58V80.82C288.178 80.2333 288.625 79.7867 289.198 79.48C289.772 79.1733 290.425 79.02 291.158 79.02Z" fill="black"/>
<defs>
<clipPath id="clip0_1_33">
<rect width="30" height="28" fill="white" transform="translate(296 49)"/>
</clipPath>
</defs>
</svg>
