<svg width="346" height="131" viewBox="0 0 346 131" fill="none" xmlns="http://www.w3.org/2000/svg">
<rect width="343" height="131" rx="20" fill="#FFEFEF"/>
<path d="M21.5064 61.15C20.6664 61.15 19.9864 60.91 19.4664 60.43C18.9664 59.93 18.7164 59.27 18.7164 58.45V44.32H14.4864C13.6064 44.32 12.9464 44.14 12.5064 43.78C12.0864 43.4 11.8764 42.83 11.8764 42.07C11.8764 41.31 12.0864 40.75 12.5064 40.39C12.9464 40.03 13.6064 39.85 14.4864 39.85H28.5264C29.4064 39.85 30.0564 40.03 30.4764 40.39C30.9164 40.75 31.1364 41.31 31.1364 42.07C31.1364 42.83 30.9164 43.4 30.4764 43.78C30.0564 44.14 29.4064 44.32 28.5264 44.32H24.2964V58.45C24.2964 59.27 24.0364 59.93 23.5164 60.43C23.0164 60.91 22.3464 61.15 21.5064 61.15ZM39.4698 45.94C40.1498 45.88 40.6898 46.04 41.0898 46.42C41.4898 46.78 41.6898 47.32 41.6898 48.04C41.6898 48.84 41.4998 49.42 41.1198 49.78C40.7598 50.14 40.0998 50.37 39.1398 50.47L38.2398 50.56C37.2398 50.68 36.5198 51 36.0798 51.52C35.6598 52.02 35.4498 52.71 35.4498 53.59V58.72C35.4498 59.54 35.1898 60.16 34.6698 60.58C34.1698 60.98 33.5398 61.18 32.7798 61.18C32.0198 61.18 31.3798 60.98 30.8598 60.58C30.3598 60.16 30.1098 59.54 30.1098 58.72V48.34C30.1098 47.58 30.3598 46.99 30.8598 46.57C31.3798 46.15 31.9998 45.94 32.7198 45.94C33.4598 45.94 34.0498 46.14 34.4898 46.54C34.9498 46.94 35.1798 47.5 35.1798 48.22V48.79C35.4998 47.91 36.0198 47.23 36.7398 46.75C37.4798 46.27 38.2498 46.01 39.0498 45.97L39.4698 45.94ZM49.5775 45.88C51.8575 45.88 53.5375 46.43 54.6175 47.53C55.7175 48.61 56.2675 50.26 56.2675 52.48V58.75C56.2675 59.51 56.0375 60.11 55.5775 60.55C55.1375 60.97 54.5175 61.18 53.7175 61.18C53.0175 61.18 52.4375 60.98 51.9775 60.58C51.5375 60.18 51.2975 59.64 51.2575 58.96C50.9775 59.68 50.5075 60.24 49.8475 60.64C49.1875 61.04 48.3975 61.24 47.4775 61.24C46.4575 61.24 45.5375 61.04 44.7175 60.64C43.8975 60.22 43.2475 59.65 42.7675 58.93C42.3075 58.19 42.0775 57.36 42.0775 56.44C42.0775 55.38 42.3475 54.54 42.8875 53.92C43.4475 53.28 44.3275 52.82 45.5275 52.54C46.7275 52.26 48.3475 52.12 50.3875 52.12H51.1975V51.76C51.1975 51.06 51.0375 50.56 50.7175 50.26C50.3975 49.94 49.8575 49.78 49.0975 49.78C48.2775 49.78 47.0775 50.06 45.4975 50.62C45.0375 50.78 44.6475 50.86 44.3275 50.86C43.8275 50.86 43.4275 50.68 43.1275 50.32C42.8275 49.96 42.6775 49.49 42.6775 48.91C42.6775 48.47 42.7675 48.11 42.9475 47.83C43.1275 47.55 43.4175 47.3 43.8175 47.08C44.5175 46.72 45.3975 46.43 46.4575 46.21C47.5175 45.99 48.5575 45.88 49.5775 45.88ZM48.7375 57.67C49.4575 57.67 50.0475 57.42 50.5075 56.92C50.9675 56.4 51.1975 55.74 51.1975 54.94V54.58H50.7175C49.4375 54.58 48.5275 54.7 47.9875 54.94C47.4475 55.16 47.1775 55.54 47.1775 56.08C47.1775 56.54 47.3175 56.92 47.5975 57.22C47.8975 57.52 48.2775 57.67 48.7375 57.67ZM66.3702 61.24C63.9702 61.24 62.0702 60.56 60.6702 59.2C59.2702 57.84 58.5702 55.99 58.5702 53.65C58.5702 52.11 58.9102 50.75 59.5902 49.57C60.2702 48.39 61.2202 47.48 62.4402 46.84C63.6802 46.2 65.0902 45.88 66.6702 45.88C67.5102 45.88 68.3502 45.99 69.1902 46.21C70.0302 46.43 70.7702 46.74 71.4102 47.14C72.0302 47.52 72.3402 48.1 72.3402 48.88C72.3402 49.5 72.1902 50.01 71.8902 50.41C71.6102 50.79 71.2402 50.98 70.7802 50.98C70.4802 50.98 70.1902 50.94 69.9102 50.86C69.6302 50.76 69.3202 50.62 68.9802 50.44C68.5802 50.26 68.2402 50.13 67.9602 50.05C67.6802 49.95 67.3702 49.9 67.0302 49.9C65.0502 49.9 64.0602 51.11 64.0602 53.53C64.0602 54.73 64.3102 55.65 64.8102 56.29C65.3302 56.91 66.0702 57.22 67.0302 57.22C67.3702 57.22 67.6802 57.18 67.9602 57.1C68.2602 57 68.5902 56.86 68.9502 56.68C69.3502 56.5 69.6702 56.37 69.9102 56.29C70.1702 56.19 70.4502 56.14 70.7502 56.14C71.2102 56.14 71.5802 56.34 71.8602 56.74C72.1602 57.12 72.3102 57.62 72.3102 58.24C72.3102 58.62 72.2302 58.97 72.0702 59.29C71.9102 59.59 71.6902 59.82 71.4102 59.98C70.0302 60.82 68.3502 61.24 66.3702 61.24ZM88.9902 56.86C89.5102 57.36 89.7702 57.94 89.7702 58.6C89.7702 59.26 89.5302 59.85 89.0502 60.37C88.5902 60.89 88.0302 61.15 87.3702 61.15C86.8102 61.15 86.2502 60.9 85.6902 60.4L79.6002 54.61V58.66C79.6002 59.48 79.3402 60.1 78.8202 60.52C78.3202 60.94 77.6902 61.15 76.9302 61.15C76.1702 61.15 75.5302 60.94 75.0102 60.52C74.5102 60.1 74.2602 59.48 74.2602 58.66V42.19C74.2602 41.37 74.5102 40.75 75.0102 40.33C75.5302 39.91 76.1702 39.7 76.9302 39.7C77.6902 39.7 78.3202 39.91 78.8202 40.33C79.3402 40.75 79.6002 41.37 79.6002 42.19V52.36L85.1502 46.72C85.6502 46.2 86.2302 45.94 86.8902 45.94C87.5302 45.94 88.0902 46.19 88.5702 46.69C89.0702 47.17 89.3202 47.72 89.3202 48.34C89.3202 48.96 89.0602 49.53 88.5402 50.05L85.2702 53.29L88.9902 56.86ZM119.087 45.88C120.707 45.88 121.957 46.37 122.837 47.35C123.717 48.31 124.157 49.94 124.157 52.24V58.72C124.157 59.54 123.897 60.16 123.377 60.58C122.877 60.98 122.247 61.18 121.487 61.18C120.727 61.18 120.087 60.98 119.567 60.58C119.067 60.16 118.817 59.54 118.817 58.72V52.12C118.817 51.32 118.677 50.76 118.397 50.44C118.117 50.12 117.707 49.96 117.167 49.96C116.467 49.96 115.907 50.21 115.487 50.71C115.067 51.21 114.857 51.9 114.857 52.78V58.72C114.857 59.54 114.607 60.16 114.107 60.58C113.607 60.98 112.967 61.18 112.187 61.18C111.427 61.18 110.787 60.98 110.267 60.58C109.767 60.16 109.517 59.54 109.517 58.72V52.12C109.517 51.32 109.377 50.76 109.097 50.44C108.817 50.12 108.407 49.96 107.867 49.96C107.167 49.96 106.607 50.21 106.187 50.71C105.787 51.21 105.587 51.9 105.587 52.78V58.72C105.587 59.54 105.327 60.16 104.807 60.58C104.307 60.98 103.677 61.18 102.917 61.18C102.157 61.18 101.517 60.98 100.997 60.58C100.497 60.16 100.247 59.54 100.247 58.72V48.34C100.247 47.56 100.507 46.97 101.027 46.57C101.567 46.15 102.207 45.94 102.947 45.94C103.647 45.94 104.227 46.13 104.687 46.51C105.167 46.87 105.417 47.4 105.437 48.1C106.417 46.62 107.917 45.88 109.937 45.88C112.077 45.88 113.507 46.75 114.227 48.49C114.727 47.69 115.397 47.06 116.237 46.6C117.077 46.12 118.027 45.88 119.087 45.88ZM137.04 47.44C137.26 46.94 137.56 46.57 137.94 46.33C138.32 46.09 138.74 45.97 139.2 45.97C139.86 45.97 140.45 46.19 140.97 46.63C141.49 47.07 141.75 47.6 141.75 48.22C141.75 48.56 141.67 48.89 141.51 49.21L133.56 65.14C133.32 65.64 133 66.01 132.6 66.25C132.22 66.49 131.8 66.61 131.34 66.61C130.68 66.61 130.09 66.39 129.57 65.95C129.07 65.53 128.82 65.01 128.82 64.39C128.82 64.05 128.91 63.7 129.09 63.34L131.04 59.41L125.94 49.21C125.78 48.85 125.7 48.53 125.7 48.25C125.7 47.61 125.98 47.07 126.54 46.63C127.1 46.17 127.73 45.94 128.43 45.94C128.91 45.94 129.35 46.07 129.75 46.33C130.17 46.57 130.49 46.94 130.71 47.44L133.89 54.34L137.04 47.44ZM161.765 45.88C163.025 45.88 164.145 46.21 165.125 46.87C166.125 47.51 166.895 48.42 167.435 49.6C167.995 50.78 168.275 52.13 168.275 53.65C168.275 55.17 167.995 56.51 167.435 57.67C166.895 58.81 166.135 59.69 165.155 60.31C164.175 60.93 163.045 61.24 161.765 61.24C160.825 61.24 159.955 61.05 159.155 60.67C158.375 60.29 157.765 59.78 157.325 59.14V64.24C157.325 64.94 157.085 65.5 156.605 65.92C156.125 66.34 155.495 66.55 154.715 66.55C153.895 66.55 153.235 66.32 152.735 65.86C152.235 65.42 151.985 64.85 151.985 64.15V48.4C151.985 47.66 152.215 47.07 152.675 46.63C153.155 46.17 153.795 45.94 154.595 45.94C155.355 45.94 155.965 46.14 156.425 46.54C156.905 46.94 157.175 47.47 157.235 48.13C157.655 47.43 158.265 46.88 159.065 46.48C159.885 46.08 160.785 45.88 161.765 45.88ZM160.145 57.25C161.065 57.25 161.765 56.94 162.245 56.32C162.745 55.7 162.995 54.81 162.995 53.65C162.995 52.43 162.745 51.5 162.245 50.86C161.745 50.2 161.035 49.87 160.115 49.87C159.195 49.87 158.485 50.19 157.985 50.83C157.485 51.47 157.235 52.39 157.235 53.59C157.235 54.77 157.485 55.68 157.985 56.32C158.485 56.94 159.205 57.25 160.145 57.25ZM182.735 56.26C183.195 56.26 183.565 56.44 183.845 56.8C184.145 57.16 184.295 57.63 184.295 58.21C184.295 59.01 183.905 59.62 183.125 60.04C182.445 60.38 181.635 60.67 180.695 60.91C179.775 61.13 178.925 61.24 178.145 61.24C176.505 61.24 175.075 60.93 173.855 60.31C172.635 59.69 171.695 58.8 171.035 57.64C170.375 56.48 170.045 55.12 170.045 53.56C170.045 52.08 170.355 50.76 170.975 49.6C171.615 48.42 172.495 47.51 173.615 46.87C174.755 46.21 176.035 45.88 177.455 45.88C178.835 45.88 180.045 46.18 181.085 46.78C182.125 47.38 182.925 48.23 183.485 49.33C184.065 50.43 184.355 51.72 184.355 53.2C184.355 53.66 184.245 54.02 184.025 54.28C183.825 54.52 183.525 54.64 183.125 54.64H175.205C175.345 55.6 175.655 56.29 176.135 56.71C176.615 57.13 177.325 57.34 178.265 57.34C178.765 57.34 179.225 57.29 179.645 57.19C180.065 57.07 180.535 56.91 181.055 56.71C181.355 56.59 181.645 56.49 181.925 56.41C182.225 56.31 182.495 56.26 182.735 56.26ZM177.605 49.48C176.905 49.48 176.345 49.71 175.925 50.17C175.505 50.61 175.255 51.26 175.175 52.12H179.885C179.765 50.36 179.005 49.48 177.605 49.48ZM196.149 45.94C196.829 45.88 197.369 46.04 197.769 46.42C198.169 46.78 198.369 47.32 198.369 48.04C198.369 48.84 198.179 49.42 197.799 49.78C197.439 50.14 196.779 50.37 195.819 50.47L194.919 50.56C193.919 50.68 193.199 51 192.759 51.52C192.339 52.02 192.129 52.71 192.129 53.59V58.72C192.129 59.54 191.869 60.16 191.349 60.58C190.849 60.98 190.219 61.18 189.459 61.18C188.699 61.18 188.059 60.98 187.539 60.58C187.039 60.16 186.789 59.54 186.789 58.72V48.34C186.789 47.58 187.039 46.99 187.539 46.57C188.059 46.15 188.679 45.94 189.399 45.94C190.139 45.94 190.729 46.14 191.169 46.54C191.629 46.94 191.859 47.5 191.859 48.22V48.79C192.179 47.91 192.699 47.23 193.419 46.75C194.159 46.27 194.929 46.01 195.729 45.97L196.149 45.94ZM202.028 61.18C201.268 61.18 200.628 60.98 200.108 60.58C199.608 60.16 199.358 59.54 199.358 58.72V48.4C199.358 47.58 199.608 46.97 200.108 46.57C200.628 46.15 201.268 45.94 202.028 45.94C202.788 45.94 203.418 46.15 203.918 46.57C204.438 46.97 204.698 47.58 204.698 48.4V58.72C204.698 59.54 204.438 60.16 203.918 60.58C203.418 60.98 202.788 61.18 202.028 61.18ZM202.028 43.84C201.128 43.84 200.408 43.61 199.868 43.15C199.348 42.67 199.088 42.04 199.088 41.26C199.088 40.48 199.348 39.86 199.868 39.4C200.408 38.94 201.128 38.71 202.028 38.71C202.908 38.71 203.618 38.94 204.158 39.4C204.698 39.86 204.968 40.48 204.968 41.26C204.968 42.04 204.698 42.67 204.158 43.15C203.638 43.61 202.928 43.84 202.028 43.84ZM215.235 61.24C213.615 61.24 212.185 60.93 210.945 60.31C209.725 59.67 208.775 58.77 208.095 57.61C207.435 56.45 207.105 55.09 207.105 53.53C207.105 51.97 207.435 50.62 208.095 49.48C208.775 48.32 209.725 47.43 210.945 46.81C212.165 46.19 213.595 45.88 215.235 45.88C216.875 45.88 218.305 46.19 219.525 46.81C220.745 47.43 221.685 48.32 222.345 49.48C223.025 50.62 223.365 51.97 223.365 53.53C223.365 55.09 223.025 56.45 222.345 57.61C221.685 58.77 220.745 59.67 219.525 60.31C218.305 60.93 216.875 61.24 215.235 61.24ZM215.235 57.25C217.135 57.25 218.085 56.01 218.085 53.53C218.085 51.05 217.135 49.81 215.235 49.81C213.335 49.81 212.385 51.05 212.385 53.53C212.385 56.01 213.335 57.25 215.235 57.25ZM238.684 39.7C239.484 39.7 240.134 39.93 240.634 40.39C241.154 40.83 241.414 41.4 241.414 42.1V58.72C241.414 59.48 241.174 60.08 240.694 60.52C240.214 60.96 239.574 61.18 238.774 61.18C238.034 61.18 237.424 60.99 236.944 60.61C236.484 60.21 236.224 59.67 236.164 58.99C235.744 59.69 235.124 60.24 234.304 60.64C233.504 61.04 232.614 61.24 231.634 61.24C230.374 61.24 229.244 60.92 228.244 60.28C227.264 59.62 226.494 58.7 225.934 57.52C225.374 56.34 225.094 54.99 225.094 53.47C225.094 51.95 225.364 50.62 225.904 49.48C226.464 48.32 227.234 47.43 228.214 46.81C229.214 46.19 230.354 45.88 231.634 45.88C232.574 45.88 233.434 46.07 234.214 46.45C235.014 46.83 235.634 47.34 236.074 47.98V42.01C236.074 41.31 236.304 40.75 236.764 40.33C237.244 39.91 237.884 39.7 238.684 39.7ZM233.254 57.25C234.194 57.25 234.914 56.93 235.414 56.29C235.914 55.65 236.164 54.73 236.164 53.53C236.164 52.35 235.914 51.45 235.414 50.83C234.914 50.19 234.194 49.87 233.254 49.87C232.334 49.87 231.624 50.18 231.124 50.8C230.624 51.42 230.374 52.31 230.374 53.47C230.374 54.67 230.624 55.6 231.124 56.26C231.644 56.92 232.354 57.25 233.254 57.25Z" fill="black"/>
<g clip-path="url(#clip0_1_28)">
<path d="M311 49C302.716 49 296 55.2685 296 63C296 70.7315 302.716 77 311 77C319.284 77 326 70.7315 326 63C326 55.2685 319.284 49 311 49ZM307.914 72.3695L306.588 71.1322L315.299 63L306.586 54.8695L307.912 53.6323L317.951 63L307.914 72.3695Z" fill="#53538A"/>
</g>
<path d="M23.52 89.14C22.6133 89.14 21.8067 88.9333 21.1 88.52C20.4067 88.1067 19.8667 87.52 19.48 86.76C19.1067 86 18.92 85.12 18.92 84.12C18.92 83.12 19.1133 82.2333 19.5 81.46C19.9 80.6867 20.4533 80.0867 21.16 79.66C21.8667 79.2333 22.68 79.02 23.6 79.02C24.1067 79.02 24.6067 79.0933 25.1 79.24C25.6067 79.3733 26.0467 79.5733 26.42 79.84C26.66 80 26.8267 80.16 26.92 80.32C27.0267 80.4667 27.08 80.6333 27.08 80.82C27.08 81.0067 27.0267 81.16 26.92 81.28C26.8267 81.4 26.7 81.46 26.54 81.46C26.4467 81.46 26.3467 81.4333 26.24 81.38C26.1333 81.3267 26.04 81.2733 25.96 81.22C25.8933 81.1667 25.8467 81.1333 25.82 81.12C25.4733 80.8933 25.14 80.7133 24.82 80.58C24.5133 80.4467 24.1333 80.38 23.68 80.38C22.7067 80.38 21.9467 80.7133 21.4 81.38C20.8667 82.0333 20.6 82.9467 20.6 84.12C20.6 85.2933 20.8667 86.2 21.4 86.84C21.9467 87.48 22.7067 87.8 23.68 87.8C24.1333 87.8 24.52 87.7333 24.84 87.6C25.1733 87.4667 25.5067 87.2867 25.84 87.06C25.9867 86.9667 26.1267 86.8867 26.26 86.82C26.3933 86.7533 26.5067 86.72 26.6 86.72C26.7467 86.72 26.8667 86.78 26.96 86.9C27.0667 87.02 27.12 87.1733 27.12 87.36C27.12 87.5333 27.0733 87.6933 26.98 87.84C26.8867 87.9733 26.7133 88.1267 26.46 88.3C26.0867 88.5533 25.6333 88.76 25.1 88.92C24.58 89.0667 24.0533 89.14 23.52 89.14ZM33.1103 89.14C32.1903 89.14 31.377 88.9333 30.6703 88.52C29.977 88.1067 29.437 87.52 29.0503 86.76C28.677 85.9867 28.4903 85.0933 28.4903 84.08C28.4903 83.0667 28.677 82.18 29.0503 81.42C29.437 80.6467 29.977 80.0533 30.6703 79.64C31.377 79.2267 32.1903 79.02 33.1103 79.02C34.0303 79.02 34.8436 79.2267 35.5503 79.64C36.257 80.0533 36.797 80.6467 37.1703 81.42C37.557 82.18 37.7503 83.0667 37.7503 84.08C37.7503 85.0933 37.557 85.9867 37.1703 86.76C36.797 87.52 36.257 88.1067 35.5503 88.52C34.8436 88.9333 34.0303 89.14 33.1103 89.14ZM33.1103 87.8C34.0703 87.8 34.8036 87.4867 35.3103 86.86C35.8303 86.22 36.0903 85.2933 36.0903 84.08C36.0903 82.8933 35.8303 81.98 35.3103 81.34C34.7903 80.6867 34.057 80.36 33.1103 80.36C32.1636 80.36 31.4303 80.6867 30.9103 81.34C30.3903 81.98 30.1303 82.8933 30.1303 84.08C30.1303 85.28 30.3836 86.2 30.8903 86.84C31.4103 87.48 32.1503 87.8 33.1103 87.8ZM45.0641 79.02C47.3974 79.02 48.5641 80.3067 48.5641 82.88V88.3C48.5641 88.5533 48.4907 88.7533 48.3441 88.9C48.2107 89.0333 48.0174 89.1 47.7641 89.1C47.5107 89.1 47.3107 89.0333 47.1641 88.9C47.0174 88.7533 46.9441 88.5533 46.9441 88.3V82.98C46.9441 82.0733 46.7641 81.4133 46.4041 81C46.0574 80.5867 45.4974 80.38 44.7241 80.38C43.8307 80.38 43.1174 80.6533 42.5841 81.2C42.0507 81.7467 41.7841 82.4867 41.7841 83.42V88.3C41.7841 88.5533 41.7107 88.7533 41.5641 88.9C41.4307 89.0333 41.2374 89.1 40.9841 89.1C40.7307 89.1 40.5307 89.0333 40.3841 88.9C40.2374 88.7533 40.1641 88.5533 40.1641 88.3V79.86C40.1641 79.62 40.2374 79.4267 40.3841 79.28C40.5307 79.1333 40.7307 79.06 40.9841 79.06C41.2241 79.06 41.4107 79.1333 41.5441 79.28C41.6907 79.4267 41.7641 79.6133 41.7641 79.84V80.86C42.0841 80.26 42.5307 79.8067 43.1041 79.5C43.6774 79.18 44.3307 79.02 45.0641 79.02ZM56.0313 87.82C56.4979 87.86 56.7313 88.0733 56.7313 88.46C56.7313 88.6867 56.6446 88.86 56.4713 88.98C56.3113 89.0867 56.0646 89.1267 55.7313 89.1L55.1913 89.06C54.1246 88.98 53.3379 88.66 52.8313 88.1C52.3246 87.54 52.0713 86.6933 52.0713 85.56V80.54H50.7313C50.5046 80.54 50.3246 80.4867 50.1913 80.38C50.0713 80.26 50.0112 80.1067 50.0112 79.92C50.0112 79.72 50.0713 79.56 50.1913 79.44C50.3246 79.32 50.5046 79.26 50.7313 79.26H52.0713V77C52.0713 76.7467 52.1446 76.5533 52.2913 76.42C52.4379 76.2733 52.6379 76.2 52.8913 76.2C53.1313 76.2 53.3246 76.2733 53.4713 76.42C53.6179 76.5533 53.6913 76.7467 53.6913 77V79.26H55.9112C56.1246 79.26 56.2913 79.32 56.4113 79.44C56.5446 79.56 56.6113 79.72 56.6113 79.92C56.6113 80.1067 56.5446 80.26 56.4113 80.38C56.2913 80.4867 56.1246 80.54 55.9112 80.54H53.6913V85.64C53.6913 86.3733 53.8379 86.9067 54.1313 87.24C54.4379 87.56 54.8913 87.74 55.4913 87.78L56.0313 87.82ZM63.1481 79.06C63.7081 79.02 63.9881 79.2467 63.9881 79.74C63.9881 79.9533 63.9281 80.1267 63.8081 80.26C63.6881 80.38 63.4815 80.4533 63.1881 80.48L62.5881 80.54C61.6948 80.62 61.0281 80.94 60.5881 81.5C60.1615 82.0467 59.9481 82.6933 59.9481 83.44V88.3C59.9481 88.5667 59.8748 88.7667 59.7281 88.9C59.5815 89.0333 59.3881 89.1 59.1481 89.1C58.9081 89.1 58.7081 89.0333 58.5481 88.9C58.4015 88.7533 58.3281 88.5533 58.3281 88.3V79.86C58.3281 79.6067 58.4081 79.4133 58.5681 79.28C58.7281 79.1333 58.9215 79.06 59.1481 79.06C59.3615 79.06 59.5415 79.1333 59.6881 79.28C59.8348 79.4133 59.9081 79.6 59.9081 79.84V80.96C60.1881 80.3733 60.5815 79.9267 61.0881 79.62C61.6081 79.3133 62.2015 79.1333 62.8681 79.08L63.1481 79.06ZM69.2808 79.02C71.7208 79.02 72.9408 80.3 72.9408 82.86V88.3C72.9408 88.54 72.8674 88.7333 72.7208 88.88C72.5874 89.0267 72.4008 89.1 72.1608 89.1C71.9208 89.1 71.7274 89.0267 71.5808 88.88C71.4341 88.7333 71.3608 88.54 71.3608 88.3V87.34C71.1074 87.9133 70.7208 88.36 70.2008 88.68C69.6808 88.9867 69.0808 89.14 68.4008 89.14C67.7741 89.14 67.1941 89.0133 66.6608 88.76C66.1408 88.5067 65.7274 88.1533 65.4208 87.7C65.1141 87.2467 64.9608 86.7467 64.9608 86.2C64.9608 85.4667 65.1474 84.9 65.5208 84.5C65.8941 84.0867 66.5074 83.7933 67.3608 83.62C68.2141 83.4333 69.4008 83.34 70.9208 83.34H71.3608V82.68C71.3608 81.88 71.1941 81.2933 70.8608 80.92C70.5408 80.5467 70.0141 80.36 69.2808 80.36C68.3741 80.36 67.4541 80.6067 66.5208 81.1C66.1608 81.3267 65.9074 81.44 65.7608 81.44C65.6008 81.44 65.4674 81.38 65.3608 81.26C65.2541 81.14 65.2008 80.9867 65.2008 80.8C65.2008 80.6133 65.2541 80.4533 65.3608 80.32C65.4808 80.1733 65.6674 80.0267 65.9208 79.88C66.3874 79.6133 66.9141 79.4067 67.5008 79.26C68.1008 79.1 68.6941 79.02 69.2808 79.02ZM68.6208 87.86C69.4208 87.86 70.0741 87.5933 70.5808 87.06C71.1008 86.5133 71.3608 85.8133 71.3608 84.96V84.38H71.0008C69.8274 84.38 68.9341 84.4333 68.3208 84.54C67.7074 84.6333 67.2674 84.8 67.0008 85.04C66.7474 85.2667 66.6208 85.6067 66.6208 86.06C66.6208 86.58 66.8074 87.0133 67.1808 87.36C67.5674 87.6933 68.0474 87.86 68.6208 87.86ZM79.9263 89.14C79.0196 89.14 78.2129 88.9333 77.5063 88.52C76.8129 88.1067 76.2729 87.52 75.8863 86.76C75.5129 86 75.3263 85.12 75.3263 84.12C75.3263 83.12 75.5196 82.2333 75.9063 81.46C76.3063 80.6867 76.8596 80.0867 77.5663 79.66C78.2729 79.2333 79.0863 79.02 80.0063 79.02C80.5129 79.02 81.0129 79.0933 81.5063 79.24C82.0129 79.3733 82.4529 79.5733 82.8263 79.84C83.0663 80 83.2329 80.16 83.3263 80.32C83.4329 80.4667 83.4863 80.6333 83.4863 80.82C83.4863 81.0067 83.4329 81.16 83.3263 81.28C83.2329 81.4 83.1063 81.46 82.9463 81.46C82.8529 81.46 82.7529 81.4333 82.6463 81.38C82.5396 81.3267 82.4463 81.2733 82.3663 81.22C82.2996 81.1667 82.2529 81.1333 82.2263 81.12C81.8796 80.8933 81.5463 80.7133 81.2263 80.58C80.9196 80.4467 80.5396 80.38 80.0863 80.38C79.1129 80.38 78.3529 80.7133 77.8063 81.38C77.2729 82.0333 77.0063 82.9467 77.0063 84.12C77.0063 85.2933 77.2729 86.2 77.8063 86.84C78.3529 87.48 79.1129 87.8 80.0863 87.8C80.5396 87.8 80.9263 87.7333 81.2463 87.6C81.5796 87.4667 81.9129 87.2867 82.2463 87.06C82.3929 86.9667 82.5329 86.8867 82.6663 86.82C82.7996 86.7533 82.9129 86.72 83.0063 86.72C83.1529 86.72 83.2729 86.78 83.3663 86.9C83.4729 87.02 83.5263 87.1733 83.5263 87.36C83.5263 87.5333 83.4796 87.6933 83.3863 87.84C83.2929 87.9733 83.1196 88.1267 82.8663 88.3C82.4929 88.5533 82.0396 88.76 81.5063 88.92C80.9863 89.0667 80.4596 89.14 79.9263 89.14ZM93.0166 86.74C93.1632 86.74 93.2899 86.8 93.3966 86.92C93.5032 87.04 93.5566 87.1933 93.5566 87.38C93.5566 87.7133 93.3232 88.02 92.8566 88.3C92.3766 88.58 91.8699 88.7933 91.3366 88.94C90.8032 89.0733 90.2832 89.14 89.7766 89.14C88.2699 89.14 87.0766 88.6933 86.1966 87.8C85.3299 86.9067 84.8966 85.6733 84.8966 84.1C84.8966 83.1 85.0899 82.22 85.4766 81.46C85.8632 80.6867 86.4032 80.0867 87.0966 79.66C87.8032 79.2333 88.6032 79.02 89.4966 79.02C90.7632 79.02 91.7699 79.4333 92.5166 80.26C93.2632 81.0867 93.6366 82.2067 93.6366 83.62C93.6366 83.8867 93.5832 84.08 93.4766 84.2C93.3699 84.32 93.1966 84.38 92.9566 84.38H86.5166C86.6366 86.6733 87.7232 87.82 89.7766 87.82C90.2966 87.82 90.7432 87.7533 91.1166 87.62C91.4899 87.4733 91.8899 87.28 92.3166 87.04C92.6632 86.84 92.8966 86.74 93.0166 86.74ZM89.5166 80.28C88.6632 80.28 87.9766 80.5467 87.4566 81.08C86.9499 81.6133 86.6499 82.3667 86.5566 83.34H92.2166C92.1899 82.3533 91.9432 81.6 91.4766 81.08C91.0099 80.5467 90.3566 80.28 89.5166 80.28ZM100.923 79.02C101.777 79.02 102.53 79.2333 103.183 79.66C103.837 80.0867 104.343 80.6867 104.703 81.46C105.063 82.22 105.243 83.1067 105.243 84.12C105.243 85.1333 105.063 86.02 104.703 86.78C104.343 87.5267 103.837 88.1067 103.183 88.52C102.543 88.9333 101.79 89.14 100.923 89.14C100.163 89.14 99.4968 88.9733 98.9234 88.64C98.3634 88.3067 97.9368 87.8333 97.6434 87.22V91.92C97.6434 92.16 97.5701 92.3467 97.4234 92.48C97.2901 92.6267 97.0968 92.7 96.8434 92.7C96.5901 92.7 96.3901 92.6267 96.2434 92.48C96.0968 92.3333 96.0234 92.1467 96.0234 91.92V79.86C96.0234 79.62 96.0968 79.4267 96.2434 79.28C96.3901 79.1333 96.5901 79.06 96.8434 79.06C97.0968 79.06 97.2901 79.1333 97.4234 79.28C97.5701 79.4267 97.6434 79.62 97.6434 79.86V80.94C97.9368 80.3267 98.3634 79.8533 98.9234 79.52C99.4968 79.1867 100.163 79.02 100.923 79.02ZM100.603 87.8C101.55 87.8 102.283 87.48 102.803 86.84C103.323 86.2 103.583 85.2933 103.583 84.12C103.583 82.9467 103.323 82.0333 102.803 81.38C102.283 80.7133 101.55 80.38 100.603 80.38C99.6568 80.38 98.9234 80.7 98.4034 81.34C97.8968 81.98 97.6434 82.8933 97.6434 84.08C97.6434 85.2667 97.8968 86.1867 98.4034 86.84C98.9234 87.48 99.6568 87.8 100.603 87.8ZM112.145 87.82C112.611 87.86 112.845 88.0733 112.845 88.46C112.845 88.6867 112.758 88.86 112.585 88.98C112.425 89.0867 112.178 89.1267 111.845 89.1L111.305 89.06C110.238 88.98 109.451 88.66 108.945 88.1C108.438 87.54 108.185 86.6933 108.185 85.56V80.54H106.845C106.618 80.54 106.438 80.4867 106.305 80.38C106.185 80.26 106.125 80.1067 106.125 79.92C106.125 79.72 106.185 79.56 106.305 79.44C106.438 79.32 106.618 79.26 106.845 79.26H108.185V77C108.185 76.7467 108.258 76.5533 108.405 76.42C108.551 76.2733 108.751 76.2 109.005 76.2C109.245 76.2 109.438 76.2733 109.585 76.42C109.731 76.5533 109.805 76.7467 109.805 77V79.26H112.025C112.238 79.26 112.405 79.32 112.525 79.44C112.658 79.56 112.725 79.72 112.725 79.92C112.725 80.1067 112.658 80.26 112.525 80.38C112.405 80.4867 112.238 80.54 112.025 80.54H109.805V85.64C109.805 86.3733 109.951 86.9067 110.245 87.24C110.551 87.56 111.005 87.74 111.605 87.78L112.145 87.82ZM115.261 89.1C115.021 89.1 114.821 89.0333 114.661 88.9C114.515 88.7533 114.441 88.5533 114.441 88.3V79.86C114.441 79.6067 114.515 79.4133 114.661 79.28C114.821 79.1333 115.021 79.06 115.261 79.06C115.501 79.06 115.695 79.1333 115.841 79.28C115.988 79.4133 116.061 79.6067 116.061 79.86V88.3C116.061 88.5667 115.988 88.7667 115.841 88.9C115.695 89.0333 115.501 89.1 115.261 89.1ZM115.261 76.96C114.941 76.96 114.681 76.8667 114.481 76.68C114.281 76.4933 114.181 76.2467 114.181 75.94C114.181 75.6467 114.281 75.4067 114.481 75.22C114.681 75.0333 114.941 74.94 115.261 74.94C115.581 74.94 115.841 75.0333 116.041 75.22C116.241 75.4067 116.341 75.6467 116.341 75.94C116.341 76.2467 116.241 76.4933 116.041 76.68C115.841 76.8667 115.581 76.96 115.261 76.96ZM123.13 89.14C122.21 89.14 121.397 88.9333 120.69 88.52C119.997 88.1067 119.457 87.52 119.07 86.76C118.697 85.9867 118.51 85.0933 118.51 84.08C118.51 83.0667 118.697 82.18 119.07 81.42C119.457 80.6467 119.997 80.0533 120.69 79.64C121.397 79.2267 122.21 79.02 123.13 79.02C124.05 79.02 124.863 79.2267 125.57 79.64C126.277 80.0533 126.817 80.6467 127.19 81.42C127.577 82.18 127.77 83.0667 127.77 84.08C127.77 85.0933 127.577 85.9867 127.19 86.76C126.817 87.52 126.277 88.1067 125.57 88.52C124.863 88.9333 124.05 89.14 123.13 89.14ZM123.13 87.8C124.09 87.8 124.823 87.4867 125.33 86.86C125.85 86.22 126.11 85.2933 126.11 84.08C126.11 82.8933 125.85 81.98 125.33 81.34C124.81 80.6867 124.077 80.36 123.13 80.36C122.183 80.36 121.45 80.6867 120.93 81.34C120.41 81.98 120.15 82.8933 120.15 84.08C120.15 85.28 120.403 86.2 120.91 86.84C121.43 87.48 122.17 87.8 123.13 87.8ZM135.084 79.02C137.417 79.02 138.584 80.3067 138.584 82.88V88.3C138.584 88.5533 138.51 88.7533 138.364 88.9C138.23 89.0333 138.037 89.1 137.784 89.1C137.53 89.1 137.33 89.0333 137.184 88.9C137.037 88.7533 136.964 88.5533 136.964 88.3V82.98C136.964 82.0733 136.784 81.4133 136.424 81C136.077 80.5867 135.517 80.38 134.744 80.38C133.85 80.38 133.137 80.6533 132.604 81.2C132.07 81.7467 131.804 82.4867 131.804 83.42V88.3C131.804 88.5533 131.73 88.7533 131.584 88.9C131.45 89.0333 131.257 89.1 131.004 89.1C130.75 89.1 130.55 89.0333 130.404 88.9C130.257 88.7533 130.184 88.5533 130.184 88.3V79.86C130.184 79.62 130.257 79.4267 130.404 79.28C130.55 79.1333 130.75 79.06 131.004 79.06C131.244 79.06 131.43 79.1333 131.564 79.28C131.71 79.4267 131.784 79.6133 131.784 79.84V80.86C132.104 80.26 132.55 79.8067 133.124 79.5C133.697 79.18 134.35 79.02 135.084 79.02ZM150.687 79.02C153.127 79.02 154.347 80.3 154.347 82.86V88.3C154.347 88.54 154.274 88.7333 154.127 88.88C153.994 89.0267 153.807 89.1 153.567 89.1C153.327 89.1 153.134 89.0267 152.987 88.88C152.84 88.7333 152.767 88.54 152.767 88.3V87.34C152.514 87.9133 152.127 88.36 151.607 88.68C151.087 88.9867 150.487 89.14 149.807 89.14C149.18 89.14 148.6 89.0133 148.067 88.76C147.547 88.5067 147.134 88.1533 146.827 87.7C146.52 87.2467 146.367 86.7467 146.367 86.2C146.367 85.4667 146.554 84.9 146.927 84.5C147.3 84.0867 147.914 83.7933 148.767 83.62C149.62 83.4333 150.807 83.34 152.327 83.34H152.767V82.68C152.767 81.88 152.6 81.2933 152.267 80.92C151.947 80.5467 151.42 80.36 150.687 80.36C149.78 80.36 148.86 80.6067 147.927 81.1C147.567 81.3267 147.314 81.44 147.167 81.44C147.007 81.44 146.874 81.38 146.767 81.26C146.66 81.14 146.607 80.9867 146.607 80.8C146.607 80.6133 146.66 80.4533 146.767 80.32C146.887 80.1733 147.074 80.0267 147.327 79.88C147.794 79.6133 148.32 79.4067 148.907 79.26C149.507 79.1 150.1 79.02 150.687 79.02ZM150.027 87.86C150.827 87.86 151.48 87.5933 151.987 87.06C152.507 86.5133 152.767 85.8133 152.767 84.96V84.38H152.407C151.234 84.38 150.34 84.4333 149.727 84.54C149.114 84.6333 148.674 84.8 148.407 85.04C148.154 85.2667 148.027 85.6067 148.027 86.06C148.027 86.58 148.214 87.0133 148.587 87.36C148.974 87.6933 149.454 87.86 150.027 87.86ZM162.213 79.02C164.546 79.02 165.713 80.3067 165.713 82.88V88.3C165.713 88.5533 165.639 88.7533 165.493 88.9C165.359 89.0333 165.166 89.1 164.913 89.1C164.659 89.1 164.459 89.0333 164.313 88.9C164.166 88.7533 164.093 88.5533 164.093 88.3V82.98C164.093 82.0733 163.913 81.4133 163.553 81C163.206 80.5867 162.646 80.38 161.873 80.38C160.979 80.38 160.266 80.6533 159.733 81.2C159.199 81.7467 158.933 82.4867 158.933 83.42V88.3C158.933 88.5533 158.859 88.7533 158.713 88.9C158.579 89.0333 158.386 89.1 158.133 89.1C157.879 89.1 157.679 89.0333 157.533 88.9C157.386 88.7533 157.313 88.5533 157.313 88.3V79.86C157.313 79.62 157.386 79.4267 157.533 79.28C157.679 79.1333 157.879 79.06 158.133 79.06C158.373 79.06 158.559 79.1333 158.693 79.28C158.839 79.4267 158.913 79.6133 158.913 79.84V80.86C159.233 80.26 159.679 79.8067 160.253 79.5C160.826 79.18 161.479 79.02 162.213 79.02ZM176.5 74.8C176.753 74.8 176.953 74.8733 177.1 75.02C177.246 75.1667 177.32 75.3533 177.32 75.58V88.3C177.32 88.54 177.246 88.7333 177.1 88.88C176.953 89.0267 176.753 89.1 176.5 89.1C176.246 89.1 176.046 89.0267 175.9 88.88C175.766 88.7333 175.7 88.54 175.7 88.3V87.22C175.406 87.8333 174.973 88.3067 174.4 88.64C173.84 88.9733 173.18 89.14 172.42 89.14C171.566 89.14 170.813 88.9267 170.16 88.5C169.506 88.0733 169 87.48 168.64 86.72C168.28 85.9467 168.1 85.0533 168.1 84.04C168.1 83.04 168.28 82.16 168.64 81.4C169 80.64 169.506 80.0533 170.16 79.64C170.813 79.2267 171.566 79.02 172.42 79.02C173.18 79.02 173.84 79.1867 174.4 79.52C174.973 79.8533 175.406 80.3267 175.7 80.94V75.58C175.7 75.34 175.766 75.1533 175.9 75.02C176.046 74.8733 176.246 74.8 176.5 74.8ZM172.74 87.8C173.686 87.8 174.413 87.48 174.92 86.84C175.44 86.1867 175.7 85.2667 175.7 84.08C175.7 82.8933 175.44 81.98 174.92 81.34C174.413 80.7 173.686 80.38 172.74 80.38C171.793 80.38 171.053 80.7 170.52 81.34C170 81.98 169.74 82.88 169.74 84.04C169.74 85.2267 170 86.1533 170.52 86.82C171.053 87.4733 171.793 87.8 172.74 87.8ZM198.797 79.58C198.93 79.26 199.15 79.1 199.457 79.1C199.657 79.1 199.837 79.1667 199.997 79.3C200.157 79.4333 200.237 79.6 200.237 79.8C200.237 79.8933 200.217 79.9933 200.177 80.1L196.857 88.5C196.777 88.6733 196.657 88.8133 196.497 88.92C196.35 89.0133 196.183 89.06 195.997 89.06C195.823 89.06 195.657 89.0133 195.497 88.92C195.35 88.8133 195.237 88.6733 195.157 88.5L192.397 81.48L189.657 88.5C189.59 88.6733 189.477 88.8133 189.317 88.92C189.157 89.0133 188.983 89.06 188.797 89.06C188.623 89.06 188.457 89.0133 188.297 88.92C188.137 88.8133 188.017 88.6733 187.937 88.5L184.617 80.12C184.577 80.0133 184.557 79.92 184.557 79.84C184.557 79.6267 184.643 79.4467 184.817 79.3C185.003 79.1533 185.203 79.08 185.417 79.08C185.737 79.08 185.963 79.24 186.097 79.56L188.837 86.94L191.657 79.62C191.737 79.4467 191.843 79.3133 191.977 79.22C192.123 79.1267 192.277 79.08 192.437 79.08C192.61 79.08 192.763 79.1267 192.897 79.22C193.043 79.3133 193.15 79.4467 193.217 79.62L196.037 86.92L198.797 79.58ZM209.735 86.74C209.882 86.74 210.009 86.8 210.115 86.92C210.222 87.04 210.275 87.1933 210.275 87.38C210.275 87.7133 210.042 88.02 209.575 88.3C209.095 88.58 208.589 88.7933 208.055 88.94C207.522 89.0733 207.002 89.14 206.495 89.14C204.989 89.14 203.795 88.6933 202.915 87.8C202.049 86.9067 201.615 85.6733 201.615 84.1C201.615 83.1 201.809 82.22 202.195 81.46C202.582 80.6867 203.122 80.0867 203.815 79.66C204.522 79.2333 205.322 79.02 206.215 79.02C207.482 79.02 208.489 79.4333 209.235 80.26C209.982 81.0867 210.355 82.2067 210.355 83.62C210.355 83.8867 210.302 84.08 210.195 84.2C210.089 84.32 209.915 84.38 209.675 84.38H203.235C203.355 86.6733 204.442 87.82 206.495 87.82C207.015 87.82 207.462 87.7533 207.835 87.62C208.209 87.4733 208.609 87.28 209.035 87.04C209.382 86.84 209.615 86.74 209.735 86.74ZM206.235 80.28C205.382 80.28 204.695 80.5467 204.175 81.08C203.669 81.6133 203.369 82.3667 203.275 83.34H208.935C208.909 82.3533 208.662 81.6 208.195 81.08C207.729 80.5467 207.075 80.28 206.235 80.28ZM213.562 89.1C213.322 89.1 213.122 89.0333 212.962 88.9C212.816 88.7533 212.742 88.5533 212.742 88.3V75.6C212.742 75.3467 212.816 75.1533 212.962 75.02C213.122 74.8733 213.322 74.8 213.562 74.8C213.789 74.8 213.976 74.8733 214.122 75.02C214.282 75.1533 214.362 75.3467 214.362 75.6V88.3C214.362 88.5533 214.282 88.7533 214.122 88.9C213.976 89.0333 213.789 89.1 213.562 89.1ZM218.211 89.1C217.971 89.1 217.771 89.0333 217.611 88.9C217.464 88.7533 217.391 88.5533 217.391 88.3V75.6C217.391 75.3467 217.464 75.1533 217.611 75.02C217.771 74.8733 217.971 74.8 218.211 74.8C218.437 74.8 218.624 74.8733 218.771 75.02C218.931 75.1533 219.011 75.3467 219.011 75.6V88.3C219.011 88.5533 218.931 88.7533 218.771 88.9C218.624 89.0333 218.437 89.1 218.211 89.1ZM226.939 79.02C227.792 79.02 228.546 79.2267 229.199 79.64C229.852 80.0533 230.359 80.64 230.719 81.4C231.079 82.16 231.259 83.04 231.259 84.04C231.259 85.0533 231.079 85.9467 230.719 86.72C230.359 87.48 229.852 88.0733 229.199 88.5C228.546 88.9267 227.792 89.14 226.939 89.14C226.179 89.14 225.512 88.9733 224.939 88.64C224.379 88.3067 223.952 87.8333 223.659 87.22V88.3C223.659 88.54 223.586 88.7333 223.439 88.88C223.306 89.0267 223.112 89.1 222.859 89.1C222.606 89.1 222.406 89.0267 222.259 88.88C222.112 88.7333 222.039 88.54 222.039 88.3V75.58C222.039 75.3533 222.112 75.1667 222.259 75.02C222.406 74.8733 222.606 74.8 222.859 74.8C223.112 74.8 223.306 74.8733 223.439 75.02C223.586 75.1533 223.659 75.34 223.659 75.58V80.94C223.952 80.3267 224.379 79.8533 224.939 79.52C225.512 79.1867 226.179 79.02 226.939 79.02ZM226.619 87.8C227.566 87.8 228.299 87.4733 228.819 86.82C229.339 86.1533 229.599 85.2267 229.599 84.04C229.599 82.88 229.339 81.98 228.819 81.34C228.299 80.7 227.566 80.38 226.619 80.38C225.672 80.38 224.939 80.7 224.419 81.34C223.912 81.98 223.659 82.8933 223.659 84.08C223.659 85.2667 223.912 86.1867 224.419 86.84C224.939 87.48 225.672 87.8 226.619 87.8ZM241.22 86.74C241.366 86.74 241.493 86.8 241.6 86.92C241.706 87.04 241.76 87.1933 241.76 87.38C241.76 87.7133 241.526 88.02 241.06 88.3C240.58 88.58 240.073 88.7933 239.54 88.94C239.006 89.0733 238.486 89.14 237.98 89.14C236.473 89.14 235.28 88.6933 234.4 87.8C233.533 86.9067 233.1 85.6733 233.1 84.1C233.1 83.1 233.293 82.22 233.68 81.46C234.066 80.6867 234.606 80.0867 235.3 79.66C236.006 79.2333 236.806 79.02 237.7 79.02C238.966 79.02 239.973 79.4333 240.72 80.26C241.466 81.0867 241.84 82.2067 241.84 83.62C241.84 83.8867 241.786 84.08 241.68 84.2C241.573 84.32 241.4 84.38 241.16 84.38H234.72C234.84 86.6733 235.926 87.82 237.98 87.82C238.5 87.82 238.946 87.7533 239.32 87.62C239.693 87.4733 240.093 87.28 240.52 87.04C240.866 86.84 241.1 86.74 241.22 86.74ZM237.72 80.28C236.866 80.28 236.18 80.5467 235.66 81.08C235.153 81.6133 234.853 82.3667 234.76 83.34H240.42C240.393 82.3533 240.146 81.6 239.68 81.08C239.213 80.5467 238.56 80.28 237.72 80.28ZM245.047 89.1C244.807 89.1 244.607 89.0333 244.447 88.9C244.3 88.7533 244.227 88.5533 244.227 88.3V79.86C244.227 79.6067 244.3 79.4133 244.447 79.28C244.607 79.1333 244.807 79.06 245.047 79.06C245.287 79.06 245.48 79.1333 245.627 79.28C245.773 79.4133 245.847 79.6067 245.847 79.86V88.3C245.847 88.5667 245.773 88.7667 245.627 88.9C245.48 89.0333 245.287 89.1 245.047 89.1ZM245.047 76.96C244.727 76.96 244.467 76.8667 244.267 76.68C244.067 76.4933 243.967 76.2467 243.967 75.94C243.967 75.6467 244.067 75.4067 244.267 75.22C244.467 75.0333 244.727 74.94 245.047 74.94C245.367 74.94 245.627 75.0333 245.827 75.22C246.027 75.4067 246.127 75.6467 246.127 75.94C246.127 76.2467 246.027 76.4933 245.827 76.68C245.627 76.8667 245.367 76.96 245.047 76.96ZM253.775 79.02C256.108 79.02 257.275 80.3067 257.275 82.88V88.3C257.275 88.5533 257.202 88.7533 257.055 88.9C256.922 89.0333 256.728 89.1 256.475 89.1C256.222 89.1 256.022 89.0333 255.875 88.9C255.728 88.7533 255.655 88.5533 255.655 88.3V82.98C255.655 82.0733 255.475 81.4133 255.115 81C254.768 80.5867 254.208 80.38 253.435 80.38C252.542 80.38 251.828 80.6533 251.295 81.2C250.762 81.7467 250.495 82.4867 250.495 83.42V88.3C250.495 88.5533 250.422 88.7533 250.275 88.9C250.142 89.0333 249.948 89.1 249.695 89.1C249.442 89.1 249.242 89.0333 249.095 88.9C248.948 88.7533 248.875 88.5533 248.875 88.3V79.86C248.875 79.62 248.948 79.4267 249.095 79.28C249.242 79.1333 249.442 79.06 249.695 79.06C249.935 79.06 250.122 79.1333 250.255 79.28C250.402 79.4267 250.475 79.6133 250.475 79.84V80.86C250.795 80.26 251.242 79.8067 251.815 79.5C252.388 79.18 253.042 79.02 253.775 79.02ZM268.142 79.06C268.396 79.06 268.596 79.1333 268.742 79.28C268.889 79.4267 268.962 79.62 268.962 79.86V88.34C268.962 89.7933 268.589 90.8867 267.842 91.62C267.096 92.3667 265.989 92.74 264.522 92.74C263.096 92.74 261.909 92.46 260.962 91.9C260.482 91.6333 260.242 91.3267 260.242 90.98C260.242 90.7933 260.289 90.64 260.382 90.52C260.489 90.4 260.622 90.34 260.782 90.34C260.916 90.34 261.156 90.4333 261.502 90.62C261.969 90.86 262.429 91.0533 262.882 91.2C263.336 91.3467 263.876 91.42 264.502 91.42C265.449 91.42 266.162 91.1667 266.642 90.66C267.122 90.1667 267.362 89.44 267.362 88.48V86.76C267.082 87.3867 266.649 87.8667 266.062 88.2C265.489 88.5333 264.809 88.7 264.022 88.7C263.169 88.7 262.409 88.5 261.742 88.1C261.089 87.7 260.576 87.1333 260.202 86.4C259.842 85.6667 259.662 84.82 259.662 83.86C259.662 82.9 259.842 82.0533 260.202 81.32C260.576 80.5867 261.089 80.02 261.742 79.62C262.409 79.22 263.169 79.02 264.022 79.02C264.796 79.02 265.469 79.1867 266.042 79.52C266.616 79.8533 267.049 80.3267 267.342 80.94V79.86C267.342 79.62 267.409 79.4267 267.542 79.28C267.689 79.1333 267.889 79.06 268.142 79.06ZM264.342 87.36C265.276 87.36 266.009 87.0533 266.542 86.44C267.076 85.8133 267.342 84.9533 267.342 83.86C267.342 82.78 267.076 81.9333 266.542 81.32C266.022 80.6933 265.289 80.38 264.342 80.38C263.396 80.38 262.649 80.6933 262.102 81.32C261.569 81.9333 261.302 82.78 261.302 83.86C261.302 84.9533 261.569 85.8133 262.102 86.44C262.649 87.0533 263.396 87.36 264.342 87.36Z" fill="black"/>
<defs>
<clipPath id="clip0_1_28">
<rect width="30" height="28" fill="white" transform="translate(296 49)"/>
</clipPath>
</defs>
</svg>
