<svg width="189" height="50" viewBox="0 0 189 50" fill="none" xmlns="http://www.w3.org/2000/svg">
<rect width="189" height="50" rx="25" fill="url(#paint0_linear_1_26)"/>
<path d="M80.28 16.8C80.52 16.8 80.7067 16.88 80.84 17.04C80.9733 17.1867 81.04 17.3867 81.04 17.64V30.26C81.04 30.5133 80.9667 30.72 80.82 30.88C80.6867 31.0267 80.4933 31.1 80.24 31.1C79.9867 31.1 79.7667 30.9867 79.58 30.76L71.28 19.66V30.26C71.28 30.5133 71.2067 30.72 71.06 30.88C70.9267 31.0267 70.74 31.1 70.5 31.1C70.26 31.1 70.0733 31.0267 69.94 30.88C69.8067 30.72 69.74 30.5133 69.74 30.26V17.64C69.74 17.3867 69.8067 17.1867 69.94 17.04C70.0867 16.88 70.2867 16.8 70.54 16.8C70.8067 16.8 71.0333 16.9133 71.22 17.14L79.5 28.24V17.64C79.5 17.3867 79.5667 17.1867 79.7 17.04C79.8467 16.88 80.04 16.8 80.28 16.8ZM91.8252 28.74C91.9718 28.74 92.0985 28.8 92.2052 28.92C92.3118 29.04 92.3652 29.1933 92.3652 29.38C92.3652 29.7133 92.1318 30.02 91.6652 30.3C91.1852 30.58 90.6785 30.7933 90.1452 30.94C89.6118 31.0733 89.0918 31.14 88.5852 31.14C87.0785 31.14 85.8852 30.6933 85.0052 29.8C84.1385 28.9067 83.7052 27.6733 83.7052 26.1C83.7052 25.1 83.8985 24.22 84.2852 23.46C84.6718 22.6867 85.2118 22.0867 85.9052 21.66C86.6118 21.2333 87.4118 21.02 88.3052 21.02C89.5718 21.02 90.5785 21.4333 91.3252 22.26C92.0718 23.0867 92.4452 24.2067 92.4452 25.62C92.4452 25.8867 92.3918 26.08 92.2852 26.2C92.1785 26.32 92.0052 26.38 91.7652 26.38H85.3252C85.4452 28.6733 86.5318 29.82 88.5852 29.82C89.1052 29.82 89.5518 29.7533 89.9252 29.62C90.2985 29.4733 90.6985 29.28 91.1252 29.04C91.4718 28.84 91.7052 28.74 91.8252 28.74ZM88.3252 22.28C87.4718 22.28 86.7852 22.5467 86.2652 23.08C85.7585 23.6133 85.4585 24.3667 85.3652 25.34H91.0252C90.9985 24.3533 90.7518 23.6 90.2852 23.08C89.8185 22.5467 89.1652 22.28 88.3252 22.28ZM102.637 29.76C102.797 29.92 102.877 30.1133 102.877 30.34C102.877 30.54 102.803 30.7133 102.657 30.86C102.51 31.0067 102.337 31.08 102.137 31.08C101.923 31.08 101.73 30.9867 101.557 30.8L98.3167 27.1L95.0967 30.8C94.9234 30.9867 94.7301 31.08 94.5167 31.08C94.3167 31.08 94.1367 31.0067 93.9767 30.86C93.8301 30.7133 93.7567 30.5333 93.7567 30.32C93.7567 30.12 93.8367 29.9333 93.9967 29.76L97.3167 26.02L94.1367 22.4C93.9767 22.2133 93.8967 22.0267 93.8967 21.84C93.8967 21.6267 93.9701 21.4467 94.1167 21.3C94.2767 21.1533 94.4501 21.08 94.6367 21.08C94.8501 21.08 95.0434 21.1733 95.2167 21.36L98.3167 24.92L101.417 21.36C101.59 21.1733 101.783 21.08 101.997 21.08C102.197 21.08 102.37 21.1533 102.517 21.3C102.663 21.4467 102.737 21.62 102.737 21.82C102.737 22.0467 102.657 22.24 102.497 22.4L99.3167 26.02L102.637 29.76ZM109.488 29.82C109.955 29.86 110.188 30.0733 110.188 30.46C110.188 30.6867 110.102 30.86 109.928 30.98C109.768 31.0867 109.522 31.1267 109.188 31.1L108.648 31.06C107.582 30.98 106.795 30.66 106.288 30.1C105.782 29.54 105.528 28.6933 105.528 27.56V22.54H104.188C103.962 22.54 103.782 22.4867 103.648 22.38C103.528 22.26 103.468 22.1067 103.468 21.92C103.468 21.72 103.528 21.56 103.648 21.44C103.782 21.32 103.962 21.26 104.188 21.26H105.528V19C105.528 18.7467 105.602 18.5533 105.748 18.42C105.895 18.2733 106.095 18.2 106.348 18.2C106.588 18.2 106.782 18.2733 106.928 18.42C107.075 18.5533 107.148 18.7467 107.148 19V21.26H109.368C109.582 21.26 109.748 21.32 109.868 21.44C110.002 21.56 110.068 21.72 110.068 21.92C110.068 22.1067 110.002 22.26 109.868 22.38C109.748 22.4867 109.582 22.54 109.368 22.54H107.148V27.64C107.148 28.3733 107.295 28.9067 107.588 29.24C107.895 29.56 108.348 29.74 108.948 29.78L109.488 29.82Z" fill="white"/>
<g clip-path="url(#clip0_1_26)">
<path d="M158.5 11C151.045 11 145 17.0446 145 24.5C145 31.9554 151.045 38 158.5 38C165.955 38 172 31.9554 172 24.5C172 17.0446 165.955 11 158.5 11ZM155.722 33.5349L154.529 32.3418L162.369 24.5L154.528 16.6599L155.721 15.4668L164.756 24.5L155.722 33.5349Z" fill="white"/>
</g>
<defs>
<linearGradient id="paint0_linear_1_26" x1="94.5" y1="0" x2="94.5" y2="126.829" gradientUnits="userSpaceOnUse">
<stop stop-color="#454581"/>
<stop offset="1" stop-color="#FCFCFF"/>
</linearGradient>
<clipPath id="clip0_1_26">
<rect width="27" height="27" fill="white" transform="translate(145 11)"/>
</clipPath>
</defs>
</svg>
